<?xml version="1.0" encoding="iso-8859-1"?>
<!-- Generator: Adobe Illustrator 18.0.0, SVG Export Plug-In . SVG Version: 6.00 Build 0)  -->
<!DOCTYPE svg PUBLIC "-//W3C//DTD SVG 1.1//EN" "http://www.w3.org/Graphics/SVG/1.1/DTD/svg11.dtd">
<svg version="1.1" id="Capa_1" xmlns="http://www.w3.org/2000/svg" xmlns:xlink="http://www.w3.org/1999/xlink" x="0px" y="0px"
	 viewBox="0 0 492.185 492.185" style="enable-background:new 0 0 492.185 492.185;" xml:space="preserve">
<g id="XMLID_545_">
	<path id="XMLID_547_" d="M246.093,0C110.172,0,0.001,110.172,0.001,246.094c0,135.904,110.172,246.092,246.093,246.092
		c135.905,0,246.092-110.188,246.092-246.092C492.185,110.172,381.999,0,246.093,0z M246.093,443.113
		c-108.638,0-197.021-88.383-197.021-197.02c0-108.639,88.384-197.021,197.021-197.021c108.639,0,197.021,88.383,197.021,197.021
		C443.115,354.73,354.732,443.113,246.093,443.113z"/>
	<path id="XMLID_546_" d="M299.045,108.846c-11.645-2.49-26.182-4.248-42.841-4.248c-82.154,0-148.221,51.564-148.221,144.211
		c0,77.361,48.352,135.777,142.183,135.777c17.475,0,32.827-1.691,45.061-4.105c13.913-2.762,22.972-16.213,20.272-30.141
		c-2.508-12.955-14.968-21.486-27.955-19.154c-8.977,1.615-18.785,2.619-28.082,2.619c-54.823,0-87.025-34.23-87.025-88.621
		c0-60.414,37.857-89.807,86.595-89.807c10.686,0,20.301,1.166,28.8,2.957c13.035,2.762,25.925-5.209,29.232-18.131l0.416-1.629
		c1.629-6.389,0.59-13.18-2.892-18.787C311.106,114.182,305.5,110.236,299.045,108.846z"/>
</g>
<g>
</g>
<g>
</g>
<g>
</g>
<g>
</g>
<g>
</g>
<g>
</g>
<g>
</g>
<g>
</g>
<g>
</g>
<g>
</g>
<g>
</g>
<g>
</g>
<g>
</g>
<g>
</g>
<g>
</g>
</svg>
