<svg id="圖層_1" data-name="圖層 1" xmlns="http://www.w3.org/2000/svg" xmlns:xlink="http://www.w3.org/1999/xlink" viewBox="0 0 1024 1025.24"><defs><style>.cls-1{fill:#f3eab5;}.cls-2{fill:#94c035;}.cls-3{fill:#fff;}.cls-4{fill:#381c0e;}.cls-5{fill:#8c652c;}.cls-20,.cls-23,.cls-24,.cls-6{fill:none;}.cls-6{stroke:#898989;stroke-width:2.91px;}.cls-10,.cls-20,.cls-24,.cls-6{stroke-miterlimit:10;}.cls-7{fill:#e5ac61;}.cls-8{fill:#d8cb82;}.cls-9{fill:#b4b4b5;}.cls-10{fill:#e5b372;stroke:#d29037;stroke-width:0.77px;}.cls-11{fill:#0b1c38;}.cls-12{fill:#d29037;}.cls-13{fill:#fff298;}.cls-14{fill:#ebd700;}.cls-15{fill:#231700;}.cls-16{fill:#724c00;}.cls-17{fill:#513400;}.cls-18{fill:#c5a070;}.cls-19{clip-path:url(#clip-path);}.cls-20{stroke:#e2cf53;stroke-width:1px;}.cls-21{fill:#c8bb9b;}.cls-22{clip-path:url(#clip-path-2);}.cls-24{stroke:#cbe08e;stroke-width:0.25px;}.cls-25{clip-path:url(#clip-path-3);}.cls-26{clip-path:url(#clip-path-4);}.cls-27{clip-path:url(#clip-path-5);}.cls-28{fill:#898989;}.cls-29{fill:#c8c9ca;}.cls-30,.cls-31{fill:#231815;stroke:#595757;stroke-linecap:round;stroke-linejoin:round;}.cls-30{stroke-width:0.74px;}.cls-31{stroke-width:0.74px;}</style><clipPath id="clip-path"><rect id="_剪裁路徑_" data-name="&lt;剪裁路徑&gt;" class="cls-1" x="785.09" y="145.28" width="20.64" height="61.12"/></clipPath><clipPath id="clip-path-2"><rect id="_剪裁路徑_2" data-name="&lt;剪裁路徑&gt;" class="cls-2" x="766.11" y="171.57" width="22.1" height="34.09" rx="1.8" ry="1.8"/></clipPath><clipPath id="clip-path-3"><rect id="_剪裁路徑_3" data-name="&lt;剪裁路徑&gt;" class="cls-2" x="746.18" y="174.05" width="22.1" height="34.09" rx="1.8" ry="1.8"/></clipPath><clipPath id="clip-path-4"><rect id="_剪裁路徑_4" data-name="&lt;剪裁路徑&gt;" class="cls-2" x="776.19" y="174.05" width="22.1" height="34.09" rx="1.8" ry="1.8"/></clipPath><clipPath id="clip-path-5"><rect id="_剪裁路徑_5" data-name="&lt;剪裁路徑&gt;" class="cls-1" x="800.2" y="147.39" width="20.64" height="61.12"/></clipPath></defs><title>bg</title><rect class="cls-3" width="1025.24" height="1025.24"/><path id="_路徑_" data-name="&lt;路徑&gt;" class="cls-2" d="M764.49,682.19c-11.95,10.54-101.15-.1-132.48,1.16-101.35-5.7-225.34,57.27-218.65,61.06,5,2.84,97.63-59.61,217.82-58.93,79.42,1.7,157.44,15.3,142.68-19.39-7-16.44-63.53-64.39-73.63-59C724,620.86,787.68,664.52,764.49,682.19Z"/><rect id="_路徑_2" data-name="&lt;路徑&gt;" class="cls-4" x="727.23" y="732.3" width="19.17" height="8.03"/><path id="_路徑_3" data-name="&lt;路徑&gt;" class="cls-4" d="M927.14,809.71c0,3.35-3.48,6.07-7.76,6.07h-1.59c-4.29,0-7.76-2.72-7.76-6.07V756c0-3.35,3.47-6.07,7.76-6.07h1.59c4.29,0,7.76,2.72,7.76,6.07Z"/><g id="_群組_" data-name="&lt;群組&gt;"><path id="_路徑_4" data-name="&lt;路徑&gt;" class="cls-5" d="M908.32,737.65H724.15c-4.35,0-7.87,2.74-7.87,6.13V812h39V782.25c0-3.35,3.47-6.07,7.76-6.07h49.52c4.29,0,7.76,2.72,7.76,6.07v49.41c0,3.35-3.48,6.07-7.76,6.07H763.06a9.29,9.29,0,0,1-4.39-1.07H716.28v36.93H916.19V743.78C916.19,740.39,912.66,737.65,908.32,737.65Z"/></g><line id="_路徑_5" data-name="&lt;路徑&gt;" class="cls-6" x1="734.76" y1="812.57" x2="734.76" y2="825.41"/><ellipse id="_路徑_6" data-name="&lt;路徑&gt;" class="cls-4" cx="868.97" cy="769.07" rx="19.14" ry="18.74"/><rect id="_路徑_7" data-name="&lt;路徑&gt;" class="cls-3" x="865.18" y="756.5" width="7.58" height="25.14"/><rect id="_路徑_8" data-name="&lt;路徑&gt;" class="cls-7" x="856.14" y="832.73" width="25.66" height="6.43"/><path id="_路徑_9" data-name="&lt;路徑&gt;" class="cls-8" d="M823.5,873.53c-2.56.8-4.54,2.16-5.28,3.64a3.36,3.36,0,0,0-.13,2.76,18.73,18.73,0,0,0,1.59,3.11c1.38,2.33,2.81,4.75,1.24,8a5.84,5.84,0,0,1-3.14,3l-.23.11c-.88.42-1.12.53-1.08,1.36a16.6,16.6,0,0,0,.24,2c.3,1.84.61,3.75-.86,5.62a6.08,6.08,0,0,1-4.2,2.17l-.31-1a5.19,5.19,0,0,0,3.72-1.82c1.2-1.54,1-3.08.67-4.87a17.88,17.88,0,0,1-.25-2.07c-.06-1.47.73-1.85,1.65-2.28l.23-.11a4.86,4.86,0,0,0,2.68-2.59c1.35-2.77.17-4.77-1.2-7.08a19.33,19.33,0,0,1-1.67-3.28,4.3,4.3,0,0,1,.17-3.53c1-1.89,3.11-3.06,4.67-3.7a.49.49,0,0,1,.39-.35l.21,0a2.21,2.21,0,0,1,.54-.08,1.43,1.43,0,0,1,.34,0,.49.49,0,0,1,0,.95Z"/><g id="_群組_2" data-name="&lt;群組&gt;"><g id="_群組_3" data-name="&lt;群組&gt;"><path id="_路徑_10" data-name="&lt;路徑&gt;" class="cls-9" d="M813.52,913.7h0l-1-.56-.57,1h0c-.46.13-1.69-3.08-2.74-7.13l-9.85-38c-1-4.05-.84-4.11.46-.13L812,906.23C813.28,910.21,814,913.57,813.52,913.7Z"/></g><path id="_路徑_11" data-name="&lt;路徑&gt;" class="cls-3" d="M808.53,900.94c0,.17,0,.34.07.47.34,1.8.94,3.68,1.46,5.47q.49,1.73,1.09,3.42a8.07,8.07,0,0,0,.95,2.18c.52.6.39-.64.25-1.23-.58-2.36-1.23-4.75-2-7.06-.33-1-.63-1.95-1-2.88-.15-.38-.44-1.09-.68-1.08S808.49,900.59,808.53,900.94Z"/></g><path id="_路徑_12" data-name="&lt;路徑&gt;" class="cls-8" d="M809.65,905.49c-.32,0-.64,0-.95-.08a18.65,18.65,0,0,1-2.27-.43,17.9,17.9,0,0,1-10.73-7.12,32,32,0,0,1-2.51-4.47c-1.36-2.74-2.76-5.57-5.32-7.18a29.5,29.5,0,0,0-3.16-1.6c-3.44-1.58-7.34-3.38-7.95-6.94a.49.49,0,0,1,.41-.56.5.5,0,0,1,.58.4c.52,3.05,4.17,4.73,7.38,6.21a30.25,30.25,0,0,1,3.28,1.66c2.8,1.76,4.27,4.72,5.68,7.58a31.49,31.49,0,0,0,2.43,4.33A16.94,16.94,0,0,0,806.69,904c.51.13,1.11.26,1.75.36.3,0,.61.08.92.11s.72,0,1.09,0c.11.32.19.65.3,1C810.38,905.52,810,905.51,809.65,905.49Z"/><g id="_群組_4" data-name="&lt;群組&gt;"><g id="_群組_5" data-name="&lt;群組&gt;"><g id="_群組_6" data-name="&lt;群組&gt;"><ellipse id="_路徑_13" data-name="&lt;路徑&gt;" class="cls-10" cx="736.34" cy="884.91" rx="12.29" ry="4.77"/><ellipse id="_路徑_14" data-name="&lt;路徑&gt;" class="cls-10" cx="736.34" cy="883.38" rx="12.29" ry="3.82"/></g><g id="_群組_7" data-name="&lt;群組&gt;"><path id="_路徑_15" data-name="&lt;路徑&gt;" class="cls-11" d="M744.69,859.38h-.91a21.44,21.44,0,0,1-14.87,0H728A21.92,21.92,0,0,0,744.69,859.38Z"/><path id="_路徑_16" data-name="&lt;路徑&gt;" class="cls-11" d="M743.14,859.38H742a20.75,20.75,0,0,1-11.34,0h-1.13A21.35,21.35,0,0,0,743.14,859.38Z"/><path id="_路徑_17" data-name="&lt;路徑&gt;" class="cls-11" d="M744.73,860v-.36a22,22,0,0,1-16.78,0V860A22.48,22.48,0,0,0,744.73,860Z"/><path id="_路徑_18" data-name="&lt;路徑&gt;" class="cls-11" d="M744.73,860.54v-.36a22.63,22.63,0,0,1-16.78,0v.36A23,23,0,0,0,744.73,860.54Z"/><path id="_路徑_19" data-name="&lt;路徑&gt;" class="cls-11" d="M737.58,859.38H735.1A20.25,20.25,0,0,0,737.58,859.38Z"/><path id="_路徑_20" data-name="&lt;路徑&gt;" class="cls-11" d="M741.19,859.38h-1.74a19.66,19.66,0,0,1-6.23,0h-1.74A20.8,20.8,0,0,0,741.19,859.38Z"/><path id="_路徑_21" data-name="&lt;路徑&gt;" class="cls-11" d="M744.73,875.78v-.34a37.13,37.13,0,0,1-16.78,0v.34A38.1,38.1,0,0,0,744.73,875.78Z"/><path id="_路徑_22" data-name="&lt;路徑&gt;" class="cls-11" d="M744.73,876.89v-.34a38.13,38.13,0,0,1-16.78,0v.34A39.23,39.23,0,0,0,744.73,876.89Z"/><path id="_路徑_23" data-name="&lt;路徑&gt;" class="cls-11" d="M744.73,875.23v-.34a36.65,36.65,0,0,1-16.78,0v.34A37.54,37.54,0,0,0,744.73,875.23Z"/><path id="_路徑_24" data-name="&lt;路徑&gt;" class="cls-11" d="M744.73,876.34V876A37.63,37.63,0,0,1,728,876v.34A38.65,38.65,0,0,0,744.73,876.34Z"/><path id="_路徑_25" data-name="&lt;路徑&gt;" class="cls-11" d="M744.73,878v-.36a39.4,39.4,0,0,1-16.78,0V878A40.34,40.34,0,0,0,744.73,878Z"/><path id="_路徑_26" data-name="&lt;路徑&gt;" class="cls-11" d="M744.73,878.55v-.36a40,40,0,0,1-16.78,0v.36A40.89,40.89,0,0,0,744.73,878.55Z"/><path id="_路徑_27" data-name="&lt;路徑&gt;" class="cls-11" d="M744.73,872.46v-.34a34.42,34.42,0,0,1-16.78,0v.34A34.77,34.77,0,0,0,744.73,872.46Z"/><path id="_路徑_28" data-name="&lt;路徑&gt;" class="cls-11" d="M744.73,874.68v-.34a36.18,36.18,0,0,1-16.78,0v.34A37,37,0,0,0,744.73,874.68Z"/><path id="_路徑_29" data-name="&lt;路徑&gt;" class="cls-11" d="M744.73,873v-.34a34.85,34.85,0,0,1-16.78,0V873A35.32,35.32,0,0,0,744.73,873Z"/><path id="_路徑_30" data-name="&lt;路徑&gt;" class="cls-11" d="M744.73,873.57v-.34a35.3,35.3,0,0,1-16.78,0v.34A35.88,35.88,0,0,0,744.73,873.57Z"/><path id="_路徑_31" data-name="&lt;路徑&gt;" class="cls-11" d="M744.73,874.12v-.34a35.73,35.73,0,0,1-16.78,0v.34A36.44,36.44,0,0,0,744.73,874.12Z"/><path id="_路徑_32" data-name="&lt;路徑&gt;" class="cls-11" d="M744.73,877.45v-.34a38.65,38.65,0,0,1-16.78,0v.34A39.77,39.77,0,0,0,744.73,877.45Z"/><path id="_路徑_33" data-name="&lt;路徑&gt;" class="cls-11" d="M744.73,882.43v-.36a44.44,44.44,0,0,1-16.78,0v.36A44.83,44.83,0,0,0,744.73,882.43Z"/><path id="_路徑_34" data-name="&lt;路徑&gt;" class="cls-11" d="M744.2,883.62a1.11,1.11,0,0,0,.49-.44,45.63,45.63,0,0,1-16.7,0,1.12,1.12,0,0,0,.49.44A45.92,45.92,0,0,0,744.2,883.62Z"/><path id="_路徑_35" data-name="&lt;路徑&gt;" class="cls-11" d="M744.73,881.88v-.36a43.73,43.73,0,0,1-16.78,0v.36A44.24,44.24,0,0,0,744.73,881.88Z"/><path id="_路徑_36" data-name="&lt;路徑&gt;" class="cls-11" d="M736.34,884.49a46.4,46.4,0,0,1-7.21-.59,30.56,30.56,0,0,0,14.44,0A46.42,46.42,0,0,1,736.34,884.49Z"/><path id="_路徑_37" data-name="&lt;路徑&gt;" class="cls-11" d="M744.73,879.66v-.36a41.16,41.16,0,0,1-16.78,0v.36A42,42,0,0,0,744.73,879.66Z"/><path id="_路徑_38" data-name="&lt;路徑&gt;" class="cls-11" d="M744.73,879.11v-.36a40.56,40.56,0,0,1-16.78,0v.36A41.45,41.45,0,0,0,744.73,879.11Z"/><path id="_路徑_39" data-name="&lt;路徑&gt;" class="cls-11" d="M744.73,880.22v-.36a41.78,41.78,0,0,1-16.78,0v.36A42.56,42.56,0,0,0,744.73,880.22Z"/><path id="_路徑_40" data-name="&lt;路徑&gt;" class="cls-11" d="M744.73,881.32V881A43.06,43.06,0,0,1,728,881v.36A43.68,43.68,0,0,0,744.73,881.32Z"/><path id="_路徑_41" data-name="&lt;路徑&gt;" class="cls-11" d="M744.73,880.77v-.36a42.42,42.42,0,0,1-16.78,0v.36A43.12,43.12,0,0,0,744.73,880.77Z"/><path id="_路徑_42" data-name="&lt;路徑&gt;" class="cls-11" d="M744.73,871.9v-.34a33.72,33.72,0,0,1-16.78,0v.34A34.21,34.21,0,0,0,744.73,871.9Z"/><path id="_路徑_43" data-name="&lt;路徑&gt;" class="cls-11" d="M744.73,861.12v-.35a23.25,23.25,0,0,1-16.78,0v.35A23.6,23.6,0,0,0,744.73,861.12Z"/><path id="_路徑_44" data-name="&lt;路徑&gt;" class="cls-11" d="M744.73,864.57v-.35a26.44,26.44,0,0,1-16.78,0v.35A26.94,26.94,0,0,0,744.73,864.57Z"/><path id="_路徑_45" data-name="&lt;路徑&gt;" class="cls-11" d="M744.73,865.71v-.34a27.72,27.72,0,0,1-16.78,0v.34A28.07,28.07,0,0,0,744.73,865.71Z"/><path id="_路徑_46" data-name="&lt;路徑&gt;" class="cls-11" d="M744.73,864v-.35a25.84,25.84,0,0,1-16.78,0V864A26.38,26.38,0,0,0,744.73,864Z"/><path id="_路徑_47" data-name="&lt;路徑&gt;" class="cls-11" d="M744.73,865.14v-.35a27.07,27.07,0,0,1-16.78,0v.35A27.51,27.51,0,0,0,744.73,865.14Z"/><path id="_路徑_48" data-name="&lt;路徑&gt;" class="cls-11" d="M744.73,861.7v-.35a23.72,23.72,0,0,1-16.78,0v.35A24.15,24.15,0,0,0,744.73,861.7Z"/><path id="_路徑_49" data-name="&lt;路徑&gt;" class="cls-11" d="M744.73,862.27v-.35a24.21,24.21,0,0,1-16.78,0v.35A24.7,24.7,0,0,0,744.73,862.27Z"/><path id="_路徑_50" data-name="&lt;路徑&gt;" class="cls-11" d="M744.73,863.42v-.35a25.28,25.28,0,0,1-16.78,0v.35A25.83,25.83,0,0,0,744.73,863.42Z"/><path id="_路徑_51" data-name="&lt;路徑&gt;" class="cls-11" d="M744.73,862.85v-.35a24.73,24.73,0,0,1-16.78,0v.35A25.26,25.26,0,0,0,744.73,862.85Z"/><path id="_路徑_52" data-name="&lt;路徑&gt;" class="cls-11" d="M744.73,866.27v-.34a28.17,28.17,0,0,1-16.78,0v.34A28.62,28.62,0,0,0,744.73,866.27Z"/><path id="_路徑_53" data-name="&lt;路徑&gt;" class="cls-11" d="M744.73,869.65v-.34a31.25,31.25,0,0,1-16.78,0v.34A32,32,0,0,0,744.73,869.65Z"/><path id="_路徑_54" data-name="&lt;路徑&gt;" class="cls-11" d="M744.73,870.78v-.34a32.43,32.43,0,0,1-16.78,0v.34A33.08,33.08,0,0,0,744.73,870.78Z"/><path id="_路徑_55" data-name="&lt;路徑&gt;" class="cls-11" d="M744.73,870.21v-.34a31.83,31.83,0,0,1-16.78,0v.34A32.51,32.51,0,0,0,744.73,870.21Z"/><path id="_路徑_56" data-name="&lt;路徑&gt;" class="cls-11" d="M744.73,871.34V871A33.07,33.07,0,0,1,728,871v.34A33.64,33.64,0,0,0,744.73,871.34Z"/><path id="_路徑_57" data-name="&lt;路徑&gt;" class="cls-11" d="M744.73,868v-.34a29.62,29.62,0,0,1-16.78,0V868A30.28,30.28,0,0,0,744.73,868Z"/><path id="_路徑_58" data-name="&lt;路徑&gt;" class="cls-11" d="M744.73,867.4v-.34a29.12,29.12,0,0,1-16.78,0v.34A29.73,29.73,0,0,0,744.73,867.4Z"/><path id="_路徑_59" data-name="&lt;路徑&gt;" class="cls-11" d="M744.73,866.84v-.34a28.64,28.64,0,0,1-16.78,0v.34A29.18,29.18,0,0,0,744.73,866.84Z"/><path id="_路徑_60" data-name="&lt;路徑&gt;" class="cls-11" d="M744.73,868.52v-.34a30.15,30.15,0,0,1-16.78,0v.34A30.84,30.84,0,0,0,744.73,868.52Z"/><path id="_路徑_61" data-name="&lt;路徑&gt;" class="cls-11" d="M744.73,869.09v-.34a30.68,30.68,0,0,1-16.78,0v.34A31.4,31.4,0,0,0,744.73,869.09Z"/><path id="_路徑_62" data-name="&lt;路徑&gt;" class="cls-11" d="M744.73,883v-.36a45.17,45.17,0,0,1-16.78,0V883A45.38,45.38,0,0,0,744.73,883Z"/><path id="_路徑_63" data-name="&lt;路徑&gt;" class="cls-11" d="M739.45,859.38h-1.87a20.25,20.25,0,0,1-2.48,0h-1.88a19.66,19.66,0,0,0,6.23,0Z"/><path id="_路徑_64" data-name="&lt;路徑&gt;" class="cls-11" d="M742,859.38h-.82a20.8,20.8,0,0,1-9.7,0h-.82a20.75,20.75,0,0,0,11.34,0Z"/><path id="_路徑_65" data-name="&lt;路徑&gt;" class="cls-11" d="M743.77,859.38h-.63a21.35,21.35,0,0,1-13.61,0h-.63a21.44,21.44,0,0,0,14.87,0Z"/><path id="_路徑_66" data-name="&lt;路徑&gt;" class="cls-11" d="M744.73,859.59v-.21h0a21.92,21.92,0,0,1-16.7,0h0v.21a22,22,0,0,0,16.78,0Z"/><path id="_路徑_67" data-name="&lt;路徑&gt;" class="cls-11" d="M744.73,860.18V860A22.48,22.48,0,0,1,728,860v.23a22.63,22.63,0,0,0,16.78,0Z"/><path id="_路徑_68" data-name="&lt;路徑&gt;" class="cls-11" d="M744.73,860.77v-.23a23,23,0,0,1-16.78,0v.23a23.25,23.25,0,0,0,16.78,0Z"/><path id="_路徑_69" data-name="&lt;路徑&gt;" class="cls-11" d="M744.73,861.34v-.22a23.6,23.6,0,0,1-16.78,0v.22a23.72,23.72,0,0,0,16.78,0Z"/><path id="_路徑_70" data-name="&lt;路徑&gt;" class="cls-11" d="M744.73,861.92v-.22a24.15,24.15,0,0,1-16.78,0v.22a24.21,24.21,0,0,0,16.78,0Z"/><path id="_路徑_71" data-name="&lt;路徑&gt;" class="cls-11" d="M744.73,862.49v-.22a24.7,24.7,0,0,1-16.78,0v.22a24.73,24.73,0,0,0,16.78,0Z"/><path id="_路徑_72" data-name="&lt;路徑&gt;" class="cls-11" d="M744.73,863.07v-.22a25.26,25.26,0,0,1-16.78,0v.22a25.28,25.28,0,0,0,16.78,0Z"/><path id="_路徑_73" data-name="&lt;路徑&gt;" class="cls-11" d="M744.73,863.64v-.22a25.83,25.83,0,0,1-16.78,0v.22a25.84,25.84,0,0,0,16.78,0Z"/><path id="_路徑_74" data-name="&lt;路徑&gt;" class="cls-11" d="M744.73,864.22V864A26.38,26.38,0,0,1,728,864v.22a26.44,26.44,0,0,0,16.78,0Z"/><path id="_路徑_75" data-name="&lt;路徑&gt;" class="cls-11" d="M744.73,864.79v-.22a26.94,26.94,0,0,1-16.78,0v.22a27.07,27.07,0,0,0,16.78,0Z"/><path id="_路徑_76" data-name="&lt;路徑&gt;" class="cls-11" d="M744.73,865.37v-.22a27.51,27.51,0,0,1-16.78,0v.22a27.72,27.72,0,0,0,16.78,0Z"/><path id="_路徑_77" data-name="&lt;路徑&gt;" class="cls-11" d="M744.73,865.93v-.22a28.07,28.07,0,0,1-16.78,0v.22a28.17,28.17,0,0,0,16.78,0Z"/><path id="_路徑_78" data-name="&lt;路徑&gt;" class="cls-11" d="M744.73,866.49v-.22a28.62,28.62,0,0,1-16.78,0v.22a28.64,28.64,0,0,0,16.78,0Z"/><path id="_路徑_79" data-name="&lt;路徑&gt;" class="cls-11" d="M744.73,867.05v-.22a29.18,29.18,0,0,1-16.78,0v.22a29.12,29.12,0,0,0,16.78,0Z"/><path id="_路徑_80" data-name="&lt;路徑&gt;" class="cls-11" d="M744.73,867.62v-.22a29.73,29.73,0,0,1-16.78,0v.22a29.62,29.62,0,0,0,16.78,0Z"/><path id="_路徑_81" data-name="&lt;路徑&gt;" class="cls-11" d="M744.73,868.18V868A30.28,30.28,0,0,1,728,868v.22a30.15,30.15,0,0,0,16.78,0Z"/><path id="_路徑_82" data-name="&lt;路徑&gt;" class="cls-11" d="M744.73,868.74v-.22a30.84,30.84,0,0,1-16.78,0v.22a30.68,30.68,0,0,0,16.78,0Z"/><path id="_路徑_83" data-name="&lt;路徑&gt;" class="cls-11" d="M744.73,869.31v-.22a31.4,31.4,0,0,1-16.78,0v.22a31.25,31.25,0,0,0,16.78,0Z"/><path id="_路徑_84" data-name="&lt;路徑&gt;" class="cls-11" d="M744.73,869.87v-.22a32,32,0,0,1-16.78,0v.22a31.83,31.83,0,0,0,16.78,0Z"/><path id="_路徑_85" data-name="&lt;路徑&gt;" class="cls-11" d="M744.73,870.43v-.22a32.51,32.51,0,0,1-16.78,0v.22a32.43,32.43,0,0,0,16.78,0Z"/><path id="_路徑_86" data-name="&lt;路徑&gt;" class="cls-11" d="M744.73,871v-.22a33.08,33.08,0,0,1-16.78,0V871a33.07,33.07,0,0,0,16.78,0Z"/><path id="_路徑_87" data-name="&lt;路徑&gt;" class="cls-11" d="M744.73,871.56v-.22a33.64,33.64,0,0,1-16.78,0v.22a33.72,33.72,0,0,0,16.78,0Z"/><path id="_路徑_88" data-name="&lt;路徑&gt;" class="cls-11" d="M744.73,872.12v-.22a34.21,34.21,0,0,1-16.78,0v.22a34.42,34.42,0,0,0,16.78,0Z"/><path id="_路徑_89" data-name="&lt;路徑&gt;" class="cls-11" d="M744.73,872.68v-.21a34.77,34.77,0,0,1-16.78,0v.21a34.85,34.85,0,0,0,16.78,0Z"/><path id="_路徑_90" data-name="&lt;路徑&gt;" class="cls-11" d="M744.73,873.23V873A35.32,35.32,0,0,1,728,873v.22a35.3,35.3,0,0,0,16.78,0Z"/><path id="_路徑_91" data-name="&lt;路徑&gt;" class="cls-11" d="M744.73,873.78v-.22a35.88,35.88,0,0,1-16.78,0v.22a35.73,35.73,0,0,0,16.78,0Z"/><path id="_路徑_92" data-name="&lt;路徑&gt;" class="cls-11" d="M744.73,874.34v-.22a36.44,36.44,0,0,1-16.78,0v.22a36.18,36.18,0,0,0,16.78,0Z"/><path id="_路徑_93" data-name="&lt;路徑&gt;" class="cls-11" d="M744.73,874.89v-.22a37,37,0,0,1-16.78,0v.22a36.65,36.65,0,0,0,16.78,0Z"/><path id="_路徑_94" data-name="&lt;路徑&gt;" class="cls-11" d="M744.73,875.44v-.21a37.54,37.54,0,0,1-16.78,0v.21a37.13,37.13,0,0,0,16.78,0Z"/><path id="_路徑_95" data-name="&lt;路徑&gt;" class="cls-11" d="M744.73,876v-.21a38.1,38.1,0,0,1-16.78,0V876a37.63,37.63,0,0,0,16.78,0Z"/><path id="_路徑_96" data-name="&lt;路徑&gt;" class="cls-11" d="M744.73,876.55v-.21a38.65,38.65,0,0,1-16.78,0v.22a38.13,38.13,0,0,0,16.78,0Z"/><path id="_路徑_97" data-name="&lt;路徑&gt;" class="cls-11" d="M744.73,877.11v-.22a39.23,39.23,0,0,1-16.78,0v.22a38.65,38.65,0,0,0,16.78,0Z"/><path id="_路徑_98" data-name="&lt;路徑&gt;" class="cls-11" d="M744.73,877.64v-.19a39.77,39.77,0,0,1-16.78,0v.19a39.4,39.4,0,0,0,16.78,0Z"/><path id="_路徑_99" data-name="&lt;路徑&gt;" class="cls-11" d="M744.73,878.19V878A40.34,40.34,0,0,1,728,878v.19a40,40,0,0,0,16.78,0Z"/><path id="_路徑_100" data-name="&lt;路徑&gt;" class="cls-11" d="M744.73,878.75v-.19a40.89,40.89,0,0,1-16.78,0v.19a40.56,40.56,0,0,0,16.78,0Z"/><path id="_路徑_101" data-name="&lt;路徑&gt;" class="cls-11" d="M744.73,879.3v-.19a41.45,41.45,0,0,1-16.78,0v.19a41.16,41.16,0,0,0,16.78,0Z"/><path id="_路徑_102" data-name="&lt;路徑&gt;" class="cls-11" d="M744.73,879.85v-.19a42,42,0,0,1-16.78,0v.19a41.78,41.78,0,0,0,16.78,0Z"/><path id="_路徑_103" data-name="&lt;路徑&gt;" class="cls-11" d="M744.73,880.41v-.19a42.56,42.56,0,0,1-16.78,0v.19a42.42,42.42,0,0,0,16.78,0Z"/><path id="_路徑_104" data-name="&lt;路徑&gt;" class="cls-11" d="M744.73,881v-.19a43.12,43.12,0,0,1-16.78,0V881a43.06,43.06,0,0,0,16.78,0Z"/><path id="_路徑_105" data-name="&lt;路徑&gt;" class="cls-11" d="M744.73,881.52v-.19a43.68,43.68,0,0,1-16.78,0v.19a43.73,43.73,0,0,0,16.78,0Z"/><path id="_路徑_106" data-name="&lt;路徑&gt;" class="cls-11" d="M744.73,882.07v-.19a44.24,44.24,0,0,1-16.78,0v.19a44.44,44.44,0,0,0,16.78,0Z"/><path id="_路徑_107" data-name="&lt;路徑&gt;" class="cls-11" d="M744.73,882.62v-.19a44.83,44.83,0,0,1-16.78,0v.19a45.17,45.17,0,0,0,16.78,0Z"/><path id="_路徑_108" data-name="&lt;路徑&gt;" class="cls-11" d="M744.69,883.18a.4.4,0,0,0,0-.17v0A45.38,45.38,0,0,1,728,883v0h0a.39.39,0,0,0,0,.17,45.63,45.63,0,0,0,16.7,0Z"/><path id="_路徑_109" data-name="&lt;路徑&gt;" class="cls-11" d="M743.56,883.9a4,4,0,0,0,.64-.28,45.92,45.92,0,0,1-15.72,0,4.09,4.09,0,0,0,.64.28,44.61,44.61,0,0,0,14.44,0Z"/></g><g id="_群組_8" data-name="&lt;群組&gt;"><ellipse id="_路徑_110" data-name="&lt;路徑&gt;" class="cls-10" cx="736.34" cy="859.35" rx="12.29" ry="4.77"/><ellipse id="_路徑_111" data-name="&lt;路徑&gt;" class="cls-10" cx="736.34" cy="857.82" rx="12.29" ry="3.82"/><ellipse id="_路徑_112" data-name="&lt;路徑&gt;" class="cls-12" cx="736.34" cy="857.82" rx="7.37" ry="2.29"/></g></g><g id="_群組_9" data-name="&lt;群組&gt;"><g id="_群組_10" data-name="&lt;群組&gt;"><ellipse id="_路徑_113" data-name="&lt;路徑&gt;" class="cls-10" cx="756.56" cy="888.34" rx="12.29" ry="4.77"/><ellipse id="_路徑_114" data-name="&lt;路徑&gt;" class="cls-10" cx="756.56" cy="886.81" rx="12.29" ry="3.82"/></g><g id="_群組_11" data-name="&lt;群組&gt;"><path id="_路徑_115" data-name="&lt;路徑&gt;" class="cls-13" d="M764.9,862.81H764a21.44,21.44,0,0,1-14.87,0h-.91A21.92,21.92,0,0,0,764.9,862.81Z"/><path id="_路徑_116" data-name="&lt;路徑&gt;" class="cls-13" d="M763.35,862.81h-1.13a20.75,20.75,0,0,1-11.34,0h-1.13A21.35,21.35,0,0,0,763.35,862.81Z"/><path id="_路徑_117" data-name="&lt;路徑&gt;" class="cls-13" d="M764.94,863.38V863a22,22,0,0,1-16.78,0v.36A22.48,22.48,0,0,0,764.94,863.38Z"/><path id="_路徑_118" data-name="&lt;路徑&gt;" class="cls-13" d="M764.94,864v-.36a22.63,22.63,0,0,1-16.78,0V864A23,23,0,0,0,764.94,864Z"/><path id="_路徑_119" data-name="&lt;路徑&gt;" class="cls-13" d="M757.79,862.81h-2.48A20.25,20.25,0,0,0,757.79,862.81Z"/><path id="_路徑_120" data-name="&lt;路徑&gt;" class="cls-13" d="M761.4,862.81h-1.74a19.66,19.66,0,0,1-6.23,0H751.7A20.8,20.8,0,0,0,761.4,862.81Z"/><path id="_路徑_121" data-name="&lt;路徑&gt;" class="cls-13" d="M764.94,879.21v-.34a37.13,37.13,0,0,1-16.78,0v.34A38.1,38.1,0,0,0,764.94,879.21Z"/><path id="_路徑_122" data-name="&lt;路徑&gt;" class="cls-13" d="M764.94,880.32V880a38.13,38.13,0,0,1-16.78,0v.34A39.23,39.23,0,0,0,764.94,880.32Z"/><path id="_路徑_123" data-name="&lt;路徑&gt;" class="cls-13" d="M764.94,878.66v-.34a36.65,36.65,0,0,1-16.78,0v.34A37.54,37.54,0,0,0,764.94,878.66Z"/><path id="_路徑_124" data-name="&lt;路徑&gt;" class="cls-13" d="M764.94,879.77v-.34a37.63,37.63,0,0,1-16.78,0v.34A38.65,38.65,0,0,0,764.94,879.77Z"/><path id="_路徑_125" data-name="&lt;路徑&gt;" class="cls-13" d="M764.94,881.43v-.36a39.4,39.4,0,0,1-16.78,0v.36A40.34,40.34,0,0,0,764.94,881.43Z"/><path id="_路徑_126" data-name="&lt;路徑&gt;" class="cls-13" d="M764.94,882v-.36a40,40,0,0,1-16.78,0V882A40.89,40.89,0,0,0,764.94,882Z"/><path id="_路徑_127" data-name="&lt;路徑&gt;" class="cls-13" d="M764.94,875.89v-.34a34.42,34.42,0,0,1-16.78,0v.34A34.77,34.77,0,0,0,764.94,875.89Z"/><path id="_路徑_128" data-name="&lt;路徑&gt;" class="cls-13" d="M764.94,878.1v-.34a36.18,36.18,0,0,1-16.78,0v.34A37,37,0,0,0,764.94,878.1Z"/><path id="_路徑_129" data-name="&lt;路徑&gt;" class="cls-13" d="M764.94,876.44v-.34a34.85,34.85,0,0,1-16.78,0v.34A35.32,35.32,0,0,0,764.94,876.44Z"/><path id="_路徑_130" data-name="&lt;路徑&gt;" class="cls-13" d="M764.94,877v-.34a35.3,35.3,0,0,1-16.78,0V877A35.88,35.88,0,0,0,764.94,877Z"/><path id="_路徑_131" data-name="&lt;路徑&gt;" class="cls-13" d="M764.94,877.55v-.34a35.73,35.73,0,0,1-16.78,0v.34A36.44,36.44,0,0,0,764.94,877.55Z"/><path id="_路徑_132" data-name="&lt;路徑&gt;" class="cls-13" d="M764.94,880.87v-.34a38.65,38.65,0,0,1-16.78,0v.34A39.77,39.77,0,0,0,764.94,880.87Z"/><path id="_路徑_133" data-name="&lt;路徑&gt;" class="cls-13" d="M764.94,885.86v-.36a44.44,44.44,0,0,1-16.78,0v.36A44.83,44.83,0,0,0,764.94,885.86Z"/><path id="_路徑_134" data-name="&lt;路徑&gt;" class="cls-13" d="M764.42,887a1.11,1.11,0,0,0,.49-.44,45.63,45.63,0,0,1-16.7,0,1.12,1.12,0,0,0,.49.44A45.92,45.92,0,0,0,764.42,887Z"/><path id="_路徑_135" data-name="&lt;路徑&gt;" class="cls-13" d="M764.94,885.3v-.36a43.73,43.73,0,0,1-16.78,0v.36A44.24,44.24,0,0,0,764.94,885.3Z"/><path id="_路徑_136" data-name="&lt;路徑&gt;" class="cls-13" d="M756.55,887.92a46.4,46.4,0,0,1-7.21-.59,30.56,30.56,0,0,0,14.44,0A46.42,46.42,0,0,1,756.55,887.92Z"/><path id="_路徑_137" data-name="&lt;路徑&gt;" class="cls-13" d="M764.94,883.09v-.36a41.16,41.16,0,0,1-16.78,0v.36A42,42,0,0,0,764.94,883.09Z"/><path id="_路徑_138" data-name="&lt;路徑&gt;" class="cls-13" d="M764.94,882.53v-.36a40.56,40.56,0,0,1-16.78,0v.36A41.45,41.45,0,0,0,764.94,882.53Z"/><path id="_路徑_139" data-name="&lt;路徑&gt;" class="cls-13" d="M764.94,883.64v-.36a41.78,41.78,0,0,1-16.78,0v.36A42.56,42.56,0,0,0,764.94,883.64Z"/><path id="_路徑_140" data-name="&lt;路徑&gt;" class="cls-13" d="M764.94,884.75v-.36a43.06,43.06,0,0,1-16.78,0v.36A43.68,43.68,0,0,0,764.94,884.75Z"/><path id="_路徑_141" data-name="&lt;路徑&gt;" class="cls-13" d="M764.94,884.2v-.36a42.42,42.42,0,0,1-16.78,0v.36A43.12,43.12,0,0,0,764.94,884.2Z"/><path id="_路徑_142" data-name="&lt;路徑&gt;" class="cls-13" d="M764.94,875.33V875a33.72,33.72,0,0,1-16.78,0v.34A34.21,34.21,0,0,0,764.94,875.33Z"/><path id="_路徑_143" data-name="&lt;路徑&gt;" class="cls-13" d="M764.94,864.55v-.35a23.25,23.25,0,0,1-16.78,0v.35A23.6,23.6,0,0,0,764.94,864.55Z"/><path id="_路徑_144" data-name="&lt;路徑&gt;" class="cls-13" d="M764.94,868v-.35a26.44,26.44,0,0,1-16.78,0V868A26.94,26.94,0,0,0,764.94,868Z"/><path id="_路徑_145" data-name="&lt;路徑&gt;" class="cls-13" d="M764.94,869.14v-.34a27.72,27.72,0,0,1-16.78,0v.34A28.07,28.07,0,0,0,764.94,869.14Z"/><path id="_路徑_146" data-name="&lt;路徑&gt;" class="cls-13" d="M764.94,867.42v-.35a25.84,25.84,0,0,1-16.78,0v.35A26.38,26.38,0,0,0,764.94,867.42Z"/><path id="_路徑_147" data-name="&lt;路徑&gt;" class="cls-13" d="M764.94,868.57v-.35a27.07,27.07,0,0,1-16.78,0v.35A27.51,27.51,0,0,0,764.94,868.57Z"/><path id="_路徑_148" data-name="&lt;路徑&gt;" class="cls-13" d="M764.94,865.12v-.35a23.72,23.72,0,0,1-16.78,0v.35A24.15,24.15,0,0,0,764.94,865.12Z"/><path id="_路徑_149" data-name="&lt;路徑&gt;" class="cls-13" d="M764.94,865.7v-.35a24.21,24.21,0,0,1-16.78,0v.35A24.7,24.7,0,0,0,764.94,865.7Z"/><path id="_路徑_150" data-name="&lt;路徑&gt;" class="cls-13" d="M764.94,866.85v-.35a25.28,25.28,0,0,1-16.78,0v.35A25.83,25.83,0,0,0,764.94,866.85Z"/><path id="_路徑_151" data-name="&lt;路徑&gt;" class="cls-13" d="M764.94,866.27v-.35a24.73,24.73,0,0,1-16.78,0v.35A25.26,25.26,0,0,0,764.94,866.27Z"/><path id="_路徑_152" data-name="&lt;路徑&gt;" class="cls-13" d="M764.94,869.7v-.34a28.17,28.17,0,0,1-16.78,0v.34A28.62,28.62,0,0,0,764.94,869.7Z"/><path id="_路徑_153" data-name="&lt;路徑&gt;" class="cls-13" d="M764.94,873.08v-.34a31.25,31.25,0,0,1-16.78,0v.34A32,32,0,0,0,764.94,873.08Z"/><path id="_路徑_154" data-name="&lt;路徑&gt;" class="cls-13" d="M764.94,874.2v-.34a32.43,32.43,0,0,1-16.78,0v.34A33.08,33.08,0,0,0,764.94,874.2Z"/><path id="_路徑_155" data-name="&lt;路徑&gt;" class="cls-13" d="M764.94,873.64v-.34a31.83,31.83,0,0,1-16.78,0v.34A32.51,32.51,0,0,0,764.94,873.64Z"/><path id="_路徑_156" data-name="&lt;路徑&gt;" class="cls-13" d="M764.94,874.77v-.34a33.07,33.07,0,0,1-16.78,0v.34A33.64,33.64,0,0,0,764.94,874.77Z"/><path id="_路徑_157" data-name="&lt;路徑&gt;" class="cls-13" d="M764.94,871.39V871a29.62,29.62,0,0,1-16.78,0v.34A30.28,30.28,0,0,0,764.94,871.39Z"/><path id="_路徑_158" data-name="&lt;路徑&gt;" class="cls-13" d="M764.94,870.83v-.34a29.12,29.12,0,0,1-16.78,0v.34A29.73,29.73,0,0,0,764.94,870.83Z"/><path id="_路徑_159" data-name="&lt;路徑&gt;" class="cls-13" d="M764.94,870.26v-.34a28.64,28.64,0,0,1-16.78,0v.34A29.18,29.18,0,0,0,764.94,870.26Z"/><path id="_路徑_160" data-name="&lt;路徑&gt;" class="cls-13" d="M764.94,872v-.34a30.15,30.15,0,0,1-16.78,0V872A30.84,30.84,0,0,0,764.94,872Z"/><path id="_路徑_161" data-name="&lt;路徑&gt;" class="cls-13" d="M764.94,872.51v-.34a30.68,30.68,0,0,1-16.78,0v.34A31.4,31.4,0,0,0,764.94,872.51Z"/><path id="_路徑_162" data-name="&lt;路徑&gt;" class="cls-13" d="M764.94,886.41v-.36a45.17,45.17,0,0,1-16.78,0v.36A45.38,45.38,0,0,0,764.94,886.41Z"/><path id="_路徑_163" data-name="&lt;路徑&gt;" class="cls-14" d="M759.67,862.81h-1.87a20.25,20.25,0,0,1-2.48,0h-1.88a19.66,19.66,0,0,0,6.23,0Z"/><path id="_路徑_164" data-name="&lt;路徑&gt;" class="cls-14" d="M762.22,862.81h-.82a20.8,20.8,0,0,1-9.7,0h-.82a20.75,20.75,0,0,0,11.34,0Z"/><path id="_路徑_165" data-name="&lt;路徑&gt;" class="cls-14" d="M764,862.81h-.63a21.35,21.35,0,0,1-13.61,0h-.63a21.44,21.44,0,0,0,14.87,0Z"/><path id="_路徑_166" data-name="&lt;路徑&gt;" class="cls-14" d="M764.94,863v-.21h0a21.92,21.92,0,0,1-16.7,0h0V863a22,22,0,0,0,16.78,0Z"/><path id="_路徑_167" data-name="&lt;路徑&gt;" class="cls-14" d="M764.94,863.61v-.23a22.48,22.48,0,0,1-16.78,0v.23a22.63,22.63,0,0,0,16.78,0Z"/><path id="_路徑_168" data-name="&lt;路徑&gt;" class="cls-14" d="M764.94,864.2V864a23,23,0,0,1-16.78,0v.23a23.25,23.25,0,0,0,16.78,0Z"/><path id="_路徑_169" data-name="&lt;路徑&gt;" class="cls-14" d="M764.94,864.77v-.22a23.6,23.6,0,0,1-16.78,0v.22a23.72,23.72,0,0,0,16.78,0Z"/><path id="_路徑_170" data-name="&lt;路徑&gt;" class="cls-14" d="M764.94,865.35v-.22a24.15,24.15,0,0,1-16.78,0v.22a24.21,24.21,0,0,0,16.78,0Z"/><path id="_路徑_171" data-name="&lt;路徑&gt;" class="cls-14" d="M764.94,865.92v-.22a24.7,24.7,0,0,1-16.78,0v.22a24.73,24.73,0,0,0,16.78,0Z"/><path id="_路徑_172" data-name="&lt;路徑&gt;" class="cls-14" d="M764.94,866.5v-.22a25.26,25.26,0,0,1-16.78,0v.22a25.28,25.28,0,0,0,16.78,0Z"/><path id="_路徑_173" data-name="&lt;路徑&gt;" class="cls-14" d="M764.94,867.07v-.22a25.83,25.83,0,0,1-16.78,0v.22a25.84,25.84,0,0,0,16.78,0Z"/><path id="_路徑_174" data-name="&lt;路徑&gt;" class="cls-14" d="M764.94,867.64v-.22a26.38,26.38,0,0,1-16.78,0v.22a26.44,26.44,0,0,0,16.78,0Z"/><path id="_路徑_175" data-name="&lt;路徑&gt;" class="cls-14" d="M764.94,868.22V868a26.94,26.94,0,0,1-16.78,0v.22a27.07,27.07,0,0,0,16.78,0Z"/><path id="_路徑_176" data-name="&lt;路徑&gt;" class="cls-14" d="M764.94,868.79v-.22a27.51,27.51,0,0,1-16.78,0v.22a27.72,27.72,0,0,0,16.78,0Z"/><path id="_路徑_177" data-name="&lt;路徑&gt;" class="cls-14" d="M764.94,869.36v-.22a28.07,28.07,0,0,1-16.78,0v.22a28.17,28.17,0,0,0,16.78,0Z"/><path id="_路徑_178" data-name="&lt;路徑&gt;" class="cls-14" d="M764.94,869.92v-.22a28.62,28.62,0,0,1-16.78,0v.22a28.64,28.64,0,0,0,16.78,0Z"/><path id="_路徑_179" data-name="&lt;路徑&gt;" class="cls-14" d="M764.94,870.48v-.22a29.18,29.18,0,0,1-16.78,0v.22a29.12,29.12,0,0,0,16.78,0Z"/><path id="_路徑_180" data-name="&lt;路徑&gt;" class="cls-14" d="M764.94,871v-.22a29.73,29.73,0,0,1-16.78,0V871a29.62,29.62,0,0,0,16.78,0Z"/><path id="_路徑_181" data-name="&lt;路徑&gt;" class="cls-14" d="M764.94,871.61v-.22a30.28,30.28,0,0,1-16.78,0v.22a30.15,30.15,0,0,0,16.78,0Z"/><path id="_路徑_182" data-name="&lt;路徑&gt;" class="cls-14" d="M764.94,872.17V872a30.84,30.84,0,0,1-16.78,0v.22a30.68,30.68,0,0,0,16.78,0Z"/><path id="_路徑_183" data-name="&lt;路徑&gt;" class="cls-14" d="M764.94,872.73v-.22a31.4,31.4,0,0,1-16.78,0v.22a31.25,31.25,0,0,0,16.78,0Z"/><path id="_路徑_184" data-name="&lt;路徑&gt;" class="cls-14" d="M764.94,873.3v-.22a32,32,0,0,1-16.78,0v.22a31.83,31.83,0,0,0,16.78,0Z"/><path id="_路徑_185" data-name="&lt;路徑&gt;" class="cls-14" d="M764.94,873.86v-.22a32.51,32.51,0,0,1-16.78,0v.22a32.43,32.43,0,0,0,16.78,0Z"/><path id="_路徑_186" data-name="&lt;路徑&gt;" class="cls-14" d="M764.94,874.42v-.22a33.08,33.08,0,0,1-16.78,0v.22a33.07,33.07,0,0,0,16.78,0Z"/><path id="_路徑_187" data-name="&lt;路徑&gt;" class="cls-14" d="M764.94,875v-.22a33.64,33.64,0,0,1-16.78,0V875a33.72,33.72,0,0,0,16.78,0Z"/><path id="_路徑_188" data-name="&lt;路徑&gt;" class="cls-14" d="M764.94,875.55v-.22a34.21,34.21,0,0,1-16.78,0v.22a34.42,34.42,0,0,0,16.78,0Z"/><path id="_路徑_189" data-name="&lt;路徑&gt;" class="cls-14" d="M764.94,876.1v-.21a34.77,34.77,0,0,1-16.78,0v.21a34.85,34.85,0,0,0,16.78,0Z"/><path id="_路徑_190" data-name="&lt;路徑&gt;" class="cls-14" d="M764.94,876.66v-.22a35.32,35.32,0,0,1-16.78,0v.22a35.3,35.3,0,0,0,16.78,0Z"/><path id="_路徑_191" data-name="&lt;路徑&gt;" class="cls-14" d="M764.94,877.21V877a35.88,35.88,0,0,1-16.78,0v.22a35.73,35.73,0,0,0,16.78,0Z"/><path id="_路徑_192" data-name="&lt;路徑&gt;" class="cls-14" d="M764.94,877.76v-.22a36.44,36.44,0,0,1-16.78,0v.22a36.18,36.18,0,0,0,16.78,0Z"/><path id="_路徑_193" data-name="&lt;路徑&gt;" class="cls-14" d="M764.94,878.32v-.22a37,37,0,0,1-16.78,0v.22a36.65,36.65,0,0,0,16.78,0Z"/><path id="_路徑_194" data-name="&lt;路徑&gt;" class="cls-14" d="M764.94,878.87v-.21a37.54,37.54,0,0,1-16.78,0v.21a37.13,37.13,0,0,0,16.78,0Z"/><path id="_路徑_195" data-name="&lt;路徑&gt;" class="cls-14" d="M764.94,879.43v-.21a38.1,38.1,0,0,1-16.78,0v.22a37.63,37.63,0,0,0,16.78,0Z"/><path id="_路徑_196" data-name="&lt;路徑&gt;" class="cls-14" d="M764.94,880v-.21a38.65,38.65,0,0,1-16.78,0V880a38.13,38.13,0,0,0,16.78,0Z"/><path id="_路徑_197" data-name="&lt;路徑&gt;" class="cls-14" d="M764.94,880.53v-.22a39.23,39.23,0,0,1-16.78,0v.22a38.65,38.65,0,0,0,16.78,0Z"/><path id="_路徑_198" data-name="&lt;路徑&gt;" class="cls-14" d="M764.94,881.07v-.19a39.77,39.77,0,0,1-16.78,0v.19a39.4,39.4,0,0,0,16.78,0Z"/><path id="_路徑_199" data-name="&lt;路徑&gt;" class="cls-14" d="M764.94,881.62v-.19a40.34,40.34,0,0,1-16.78,0v.19a40,40,0,0,0,16.78,0Z"/><path id="_路徑_200" data-name="&lt;路徑&gt;" class="cls-14" d="M764.94,882.17V882a40.89,40.89,0,0,1-16.78,0v.19a40.56,40.56,0,0,0,16.78,0Z"/><path id="_路徑_201" data-name="&lt;路徑&gt;" class="cls-14" d="M764.94,882.73v-.19a41.45,41.45,0,0,1-16.78,0v.19a41.16,41.16,0,0,0,16.78,0Z"/><path id="_路徑_202" data-name="&lt;路徑&gt;" class="cls-14" d="M764.94,883.28v-.19a42,42,0,0,1-16.78,0v.19a41.78,41.78,0,0,0,16.78,0Z"/><path id="_路徑_203" data-name="&lt;路徑&gt;" class="cls-14" d="M764.94,883.84v-.19a42.56,42.56,0,0,1-16.78,0v.19a42.42,42.42,0,0,0,16.78,0Z"/><path id="_路徑_204" data-name="&lt;路徑&gt;" class="cls-14" d="M764.94,884.39v-.19a43.12,43.12,0,0,1-16.78,0v.19a43.06,43.06,0,0,0,16.78,0Z"/><path id="_路徑_205" data-name="&lt;路徑&gt;" class="cls-14" d="M764.94,884.94v-.19a43.68,43.68,0,0,1-16.78,0v.19a43.73,43.73,0,0,0,16.78,0Z"/><path id="_路徑_206" data-name="&lt;路徑&gt;" class="cls-14" d="M764.94,885.5v-.19a44.24,44.24,0,0,1-16.78,0v.19a44.44,44.44,0,0,0,16.78,0Z"/><path id="_路徑_207" data-name="&lt;路徑&gt;" class="cls-14" d="M764.94,886.05v-.19a44.83,44.83,0,0,1-16.78,0v.19a45.17,45.17,0,0,0,16.78,0Z"/><path id="_路徑_208" data-name="&lt;路徑&gt;" class="cls-14" d="M764.9,886.61a.4.4,0,0,0,0-.17v0a45.38,45.38,0,0,1-16.78,0v0h0a.39.39,0,0,0,0,.17,45.63,45.63,0,0,0,16.7,0Z"/><path id="_路徑_209" data-name="&lt;路徑&gt;" class="cls-14" d="M763.78,887.33a4,4,0,0,0,.64-.28,45.92,45.92,0,0,1-15.72,0,4.09,4.09,0,0,0,.64.28,44.61,44.61,0,0,0,14.44,0Z"/></g><g id="_群組_12" data-name="&lt;群組&gt;"><ellipse id="_路徑_210" data-name="&lt;路徑&gt;" class="cls-10" cx="756.56" cy="862.78" rx="12.29" ry="4.77"/><ellipse id="_路徑_211" data-name="&lt;路徑&gt;" class="cls-10" cx="756.56" cy="861.25" rx="12.29" ry="3.82"/><ellipse id="_路徑_212" data-name="&lt;路徑&gt;" class="cls-12" cx="756.56" cy="861.25" rx="7.37" ry="2.29"/></g></g></g><path id="_複合路徑_" data-name="&lt;複合路徑&gt;" class="cls-15" d="M781.37,882.33a13.48,13.48,0,0,1-4-.63,12.1,12.1,0,0,1-5.82-3.76,5.86,5.86,0,0,1-1.33-5.54c.82-2.52,3.7-4.15,7.32-4.15a13.44,13.44,0,0,1,4,.63c5.18,1.62,8.32,5.71,7.15,9.3C787.87,880.7,785,882.33,781.37,882.33Zm-3.84-12.12c-2.73,0-4.85,1.09-5.41,2.79a4,4,0,0,0,1,3.72,10.08,10.08,0,0,0,4.85,3.11,11.4,11.4,0,0,0,3.4.54c2.73,0,4.85-1.09,5.41-2.79.8-2.46-1.87-5.59-5.85-6.83A11.43,11.43,0,0,0,777.53,870.21Z"/><path id="_路徑_213" data-name="&lt;路徑&gt;" class="cls-16" d="M787.73,877.32c-1,3-5.49,4.32-10.07,2.89s-7.48-5-6.5-8.06,5.49-4.32,10.07-2.89S788.72,874.29,787.73,877.32Z"/><path id="_複合路徑_2" data-name="&lt;複合路徑&gt;" class="cls-17" d="M781.37,881.77a13.47,13.47,0,0,1-4-.63,12.1,12.1,0,0,1-5.82-3.76,5.86,5.86,0,0,1-1.33-5.54c.82-2.52,3.7-4.15,7.32-4.15a13.4,13.4,0,0,1,4,.63c5.18,1.62,8.32,5.7,7.15,9.3C787.87,880.14,785,881.77,781.37,881.77Zm-3.84-12.12c-2.73,0-4.85,1.09-5.41,2.79a4,4,0,0,0,1,3.72,10.07,10.07,0,0,0,4.85,3.11,11.37,11.37,0,0,0,3.4.54c2.73,0,4.85-1.09,5.41-2.79.8-2.46-1.87-5.59-5.85-6.83A11.41,11.41,0,0,0,777.53,869.65Z"/><path id="_路徑_214" data-name="&lt;路徑&gt;" class="cls-3" d="M779.31,872.92c-.15.46-.84.66-1.53.44s-1.14-.77-1-1.23.84-.66,1.53-.44S779.46,872.46,779.31,872.92Z"/><path id="_路徑_215" data-name="&lt;路徑&gt;" class="cls-3" d="M778.18,875.61c-.15.46-.84.66-1.53.44s-1.14-.77-1-1.23.84-.66,1.53-.44S778.33,875.15,778.18,875.61Z"/><path id="_路徑_216" data-name="&lt;路徑&gt;" class="cls-3" d="M783.34,874.13c-.15.46-.84.66-1.53.44s-1.14-.77-1-1.23.84-.66,1.53-.44S783.49,873.67,783.34,874.13Z"/><path id="_路徑_217" data-name="&lt;路徑&gt;" class="cls-3" d="M782.46,877c-.15.46-.83.66-1.53.44s-1.14-.77-1-1.23.84-.66,1.53-.44S782.61,876.49,782.46,877Z"/><path id="_路徑_218" data-name="&lt;路徑&gt;" class="cls-8" d="M776.83,875.71a.51.51,0,0,1-.23-.06.49.49,0,0,1-.21-.66c1.23-2.3.38-7.25-.77-9.34s-3.95-3.43-5.45-3.94a7.93,7.93,0,0,0-4-.46c-.21,0-.4.1-.6.15a4.35,4.35,0,0,1-1.38.22.5.5,0,0,1-.48-.51.47.47,0,0,1,.52-.47,3.36,3.36,0,0,0,1.06-.19c.23-.06.46-.13.7-.17a8.88,8.88,0,0,1,4.52.5c1.64.56,4.61,1.88,6,4.4,1.28,2.32,2.18,7.65.78,10.26A.51.51,0,0,1,776.83,875.71Z"/><g id="_群組_13" data-name="&lt;群組&gt;"><g id="_群組_14" data-name="&lt;群組&gt;"><g id="_群組_15" data-name="&lt;群組&gt;"><path id="_路徑_219" data-name="&lt;路徑&gt;" class="cls-2" d="M421.47,993.82c-23.36-.57-40.6-4.25-57.29-7.82-4.12-.88-8.22-1.75-12.4-2.58-29.73-5.86-72.94-10.82-112.77-13-2.42-.13-4-.74-3.59-1.33s2.74-1,5.17-.86c41.1,2.2,85.76,7.33,116.54,13.4,4.27.84,8.46,1.74,12.68,2.64,16.31,3.48,31.71,6.77,52.21,7.28,19.83.48,38.11-1,50.14-4.14,1.69-.44,3.23-.9,4.68-1.38l9.18.66c-2.22.8-4.58,1.59-7.36,2.31C464.81,992.63,444,994.38,421.47,993.82Z"/><path id="_路徑_220" data-name="&lt;路徑&gt;" class="cls-2" d="M485.71,982.54l.09,0,1.91-.86,2.06-.93a87.7,87.7,0,0,1,13.8-5.08c14.71-4,36-6.32,63.12-6.88,8.74-.18,18.72.11,28.37.38,13.33.39,24.09-.91,39.33,0,3,.46.14.26,3.74.63a8.92,8.92,0,0,1,2.34,1c0,.46-2,1.29-3.85,1.17-11.59-.74-28-.22-42.27-.64-9.65-.28-18.76-.54-26.62-.38-24.94.51-44.3,2.6-57.53,6.19a77.49,77.49,0,0,0-11.55,4.2c-1,.46-2.07.93-3.1,1.4l-1,.43-.09,0c-1.23.56-7.17,3-8.48,3.51-3-.18-6.14-.46-9.18-.66C478.27,985.5,484.36,983.15,485.71,982.54Z"/></g></g><path id="_路徑_221" data-name="&lt;路徑&gt;" class="cls-2" d="M631.12,969.23c-8,8.62,83.45-1.46,89-31.17,1.86-9.93-6.29-27.91-18.48-28-17.14-.18-25.37,17.85-14.16,27,16.05,13.17,44.71-21.55,53.57-33.5,11.58-15.61-1.59-.54-1.59-.54s-22.25,24.94-34.87,32.7c-14.16,8.71-29.57-10.22-13.48-19.83,18.93-11.3,30,11.88,26.18,24.89C703.06,966.82,649.46,968.28,631.12,969.23Z"/></g><path id="_路徑_222" data-name="&lt;路徑&gt;" class="cls-2" d="M545.5,473.74c5.83,4.3,13.3,14.72,36,19.92,7.79,1.78,19.15,4.76,29.21,10.74,30.87,18.33,72.12,63.81,67.82,67.33-4.64,0-41.06-62.12-98-75.52C556.92,490.64,544.32,476.49,545.5,473.74Z"/><path id="_路徑_223" data-name="&lt;路徑&gt;" class="cls-2" d="M745.64,209.25s-50.37-3-92.27,21.69S612.19,270,588.32,280s-40.18,14.1-54.48,15.7-2,2.14-.55,2c16.59-1.44,49.4-11.41,61.38-17.83,7.18-3.39,6.47-7.3,47.95-38.39,8-6.54,34.38-20.17,56.27-26.39,17.94-3.43,44.32-3.91,46.75-3.85S745.64,209.25,745.64,209.25Z"/><g id="_群組_16" data-name="&lt;群組&gt;"><g id="_群組_17" data-name="&lt;群組&gt;"><g id="_群組_18" data-name="&lt;群組&gt;"><rect id="_路徑_224" data-name="&lt;路徑&gt;" class="cls-18" x="788.84" y="141.1" width="13.15" height="7.11"/><rect id="_路徑_225" data-name="&lt;路徑&gt;" class="cls-18" x="788.84" y="203.48" width="13.15" height="7.11"/></g><g id="_剪裁群組_" data-name="&lt;剪裁群組&gt;"><rect id="_剪裁路徑_6" data-name="&lt;剪裁路徑&gt;" class="cls-1" x="785.09" y="145.28" width="20.64" height="61.12"/><g class="cls-19"><g id="_群組_19" data-name="&lt;群組&gt;"><g id="_群組_20" data-name="&lt;群組&gt;"><line id="_路徑_226" data-name="&lt;路徑&gt;" class="cls-20" x1="807.37" y1="146.23" x2="783.77" y2="146.23"/><line id="_路徑_227" data-name="&lt;路徑&gt;" class="cls-20" x1="807.37" y1="147.47" x2="783.77" y2="147.47"/><line id="_路徑_228" data-name="&lt;路徑&gt;" class="cls-20" x1="807.37" y1="148.71" x2="783.77" y2="148.71"/><line id="_路徑_229" data-name="&lt;路徑&gt;" class="cls-20" x1="807.37" y1="149.95" x2="783.77" y2="149.95"/><line id="_路徑_230" data-name="&lt;路徑&gt;" class="cls-20" x1="807.37" y1="151.2" x2="783.77" y2="151.2"/><line id="_路徑_231" data-name="&lt;路徑&gt;" class="cls-20" x1="807.37" y1="152.44" x2="783.77" y2="152.44"/><line id="_路徑_232" data-name="&lt;路徑&gt;" class="cls-20" x1="807.37" y1="153.68" x2="783.77" y2="153.68"/><line id="_路徑_233" data-name="&lt;路徑&gt;" class="cls-20" x1="807.37" y1="154.92" x2="783.77" y2="154.92"/><line id="_路徑_234" data-name="&lt;路徑&gt;" class="cls-20" x1="807.37" y1="156.16" x2="783.77" y2="156.16"/><line id="_路徑_235" data-name="&lt;路徑&gt;" class="cls-20" x1="807.37" y1="157.41" x2="783.77" y2="157.41"/><line id="_路徑_236" data-name="&lt;路徑&gt;" class="cls-20" x1="807.37" y1="158.65" x2="783.77" y2="158.65"/><line id="_路徑_237" data-name="&lt;路徑&gt;" class="cls-20" x1="807.37" y1="159.89" x2="783.77" y2="159.89"/><line id="_路徑_238" data-name="&lt;路徑&gt;" class="cls-20" x1="807.37" y1="161.13" x2="783.77" y2="161.13"/><line id="_路徑_239" data-name="&lt;路徑&gt;" class="cls-20" x1="807.37" y1="162.37" x2="783.77" y2="162.37"/><line id="_路徑_240" data-name="&lt;路徑&gt;" class="cls-20" x1="807.37" y1="163.61" x2="783.77" y2="163.61"/><line id="_路徑_241" data-name="&lt;路徑&gt;" class="cls-20" x1="807.37" y1="164.85" x2="783.77" y2="164.85"/><line id="_路徑_242" data-name="&lt;路徑&gt;" class="cls-20" x1="807.37" y1="166.1" x2="783.77" y2="166.1"/><line id="_路徑_243" data-name="&lt;路徑&gt;" class="cls-20" x1="807.37" y1="167.34" x2="783.77" y2="167.34"/><line id="_路徑_244" data-name="&lt;路徑&gt;" class="cls-20" x1="807.37" y1="168.58" x2="783.77" y2="168.58"/><line id="_路徑_245" data-name="&lt;路徑&gt;" class="cls-20" x1="807.37" y1="169.82" x2="783.77" y2="169.82"/><line id="_路徑_246" data-name="&lt;路徑&gt;" class="cls-20" x1="807.37" y1="171.06" x2="783.77" y2="171.06"/><line id="_路徑_247" data-name="&lt;路徑&gt;" class="cls-20" x1="807.37" y1="172.3" x2="783.77" y2="172.3"/><line id="_路徑_248" data-name="&lt;路徑&gt;" class="cls-20" x1="807.37" y1="173.55" x2="783.77" y2="173.55"/><line id="_路徑_249" data-name="&lt;路徑&gt;" class="cls-20" x1="807.37" y1="174.79" x2="783.77" y2="174.79"/><line id="_路徑_250" data-name="&lt;路徑&gt;" class="cls-20" x1="807.37" y1="176.03" x2="783.77" y2="176.03"/><line id="_路徑_251" data-name="&lt;路徑&gt;" class="cls-20" x1="807.37" y1="177.27" x2="783.77" y2="177.27"/><line id="_路徑_252" data-name="&lt;路徑&gt;" class="cls-20" x1="807.37" y1="178.51" x2="783.77" y2="178.51"/><line id="_路徑_253" data-name="&lt;路徑&gt;" class="cls-20" x1="807.37" y1="179.76" x2="783.77" y2="179.76"/><line id="_路徑_254" data-name="&lt;路徑&gt;" class="cls-20" x1="807.37" y1="181" x2="783.77" y2="181"/><line id="_路徑_255" data-name="&lt;路徑&gt;" class="cls-20" x1="807.37" y1="182.24" x2="783.77" y2="182.24"/><line id="_路徑_256" data-name="&lt;路徑&gt;" class="cls-20" x1="807.37" y1="183.48" x2="783.77" y2="183.48"/><line id="_路徑_257" data-name="&lt;路徑&gt;" class="cls-20" x1="807.37" y1="184.72" x2="783.77" y2="184.72"/><line id="_路徑_258" data-name="&lt;路徑&gt;" class="cls-20" x1="807.37" y1="185.96" x2="783.77" y2="185.96"/><line id="_路徑_259" data-name="&lt;路徑&gt;" class="cls-20" x1="807.37" y1="187.21" x2="783.77" y2="187.21"/><line id="_路徑_260" data-name="&lt;路徑&gt;" class="cls-20" x1="807.37" y1="188.45" x2="783.77" y2="188.45"/><line id="_路徑_261" data-name="&lt;路徑&gt;" class="cls-20" x1="807.37" y1="189.69" x2="783.77" y2="189.69"/><line id="_路徑_262" data-name="&lt;路徑&gt;" class="cls-20" x1="807.37" y1="190.93" x2="783.77" y2="190.93"/><line id="_路徑_263" data-name="&lt;路徑&gt;" class="cls-20" x1="807.37" y1="192.17" x2="783.77" y2="192.17"/><line id="_路徑_264" data-name="&lt;路徑&gt;" class="cls-20" x1="807.37" y1="193.41" x2="783.77" y2="193.41"/><line id="_路徑_265" data-name="&lt;路徑&gt;" class="cls-20" x1="807.37" y1="194.66" x2="783.77" y2="194.66"/><line id="_路徑_266" data-name="&lt;路徑&gt;" class="cls-20" x1="807.37" y1="195.9" x2="783.77" y2="195.9"/><line id="_路徑_267" data-name="&lt;路徑&gt;" class="cls-20" x1="807.37" y1="197.14" x2="783.77" y2="197.14"/><line id="_路徑_268" data-name="&lt;路徑&gt;" class="cls-20" x1="807.37" y1="198.38" x2="783.77" y2="198.38"/><line id="_路徑_269" data-name="&lt;路徑&gt;" class="cls-20" x1="807.37" y1="199.62" x2="783.77" y2="199.62"/><line id="_路徑_270" data-name="&lt;路徑&gt;" class="cls-20" x1="807.37" y1="200.86" x2="783.77" y2="200.86"/><line id="_路徑_271" data-name="&lt;路徑&gt;" class="cls-20" x1="807.37" y1="202.11" x2="783.77" y2="202.11"/><line id="_路徑_272" data-name="&lt;路徑&gt;" class="cls-20" x1="807.37" y1="203.35" x2="783.77" y2="203.35"/><line id="_路徑_273" data-name="&lt;路徑&gt;" class="cls-20" x1="807.37" y1="204.59" x2="783.77" y2="204.59"/><line id="_路徑_274" data-name="&lt;路徑&gt;" class="cls-20" x1="807.37" y1="205.83" x2="783.77" y2="205.83"/></g></g></g></g></g><g id="_群組_21" data-name="&lt;群組&gt;"><path id="_路徑_275" data-name="&lt;路徑&gt;" class="cls-21" d="M790.05,167.49a.54.54,0,0,0-.53-.82H764.8a.54.54,0,0,0-.53.82l1.47,3.26a1.52,1.52,0,0,0,1.27.82h20.3a1.52,1.52,0,0,0,1.27-.82Z"/><path id="_路徑_276" data-name="&lt;路徑&gt;" class="cls-21" d="M790.05,209.74a.54.54,0,0,1-.53.82H764.8a.54.54,0,0,1-.53-.82l1.47-3.26a1.52,1.52,0,0,1,1.27-.82h20.3a1.52,1.52,0,0,1,1.27.82Z"/><g id="_剪裁群組_2" data-name="&lt;剪裁群組&gt;"><rect id="_剪裁路徑_7" data-name="&lt;剪裁路徑&gt;" class="cls-2" x="766.11" y="171.57" width="22.1" height="34.09" rx="1.8" ry="1.8"/><g class="cls-22"><rect id="_路徑_277" data-name="&lt;路徑&gt;" class="cls-23" x="766.11" y="171.57" width="22.1" height="34.09"/><g id="_群組_22" data-name="&lt;群組&gt;"><line id="_路徑_278" data-name="&lt;路徑&gt;" class="cls-24" x1="795.3" y1="174.75" x2="759.33" y2="163.73"/><line id="_路徑_279" data-name="&lt;路徑&gt;" class="cls-24" x1="795.3" y1="176.46" x2="759.33" y2="165.43"/><line id="_路徑_280" data-name="&lt;路徑&gt;" class="cls-24" x1="795.3" y1="178.16" x2="759.33" y2="167.14"/><line id="_路徑_281" data-name="&lt;路徑&gt;" class="cls-24" x1="795.3" y1="179.87" x2="759.33" y2="168.84"/><line id="_路徑_282" data-name="&lt;路徑&gt;" class="cls-24" x1="795.3" y1="181.57" x2="759.33" y2="170.54"/><line id="_路徑_283" data-name="&lt;路徑&gt;" class="cls-24" x1="795.3" y1="183.27" x2="759.33" y2="172.25"/><line id="_路徑_284" data-name="&lt;路徑&gt;" class="cls-24" x1="795.3" y1="184.98" x2="759.33" y2="173.95"/><line id="_路徑_285" data-name="&lt;路徑&gt;" class="cls-24" x1="795.3" y1="186.68" x2="759.33" y2="175.65"/><line id="_路徑_286" data-name="&lt;路徑&gt;" class="cls-24" x1="795.3" y1="188.38" x2="759.33" y2="177.36"/><line id="_路徑_287" data-name="&lt;路徑&gt;" class="cls-24" x1="795.3" y1="190.09" x2="759.33" y2="179.06"/><line id="_路徑_288" data-name="&lt;路徑&gt;" class="cls-24" x1="795.3" y1="191.79" x2="759.33" y2="180.76"/><line id="_路徑_289" data-name="&lt;路徑&gt;" class="cls-24" x1="795.3" y1="193.49" x2="759.33" y2="182.47"/><line id="_路徑_290" data-name="&lt;路徑&gt;" class="cls-24" x1="795.3" y1="195.2" x2="759.33" y2="184.17"/><line id="_路徑_291" data-name="&lt;路徑&gt;" class="cls-24" x1="795.3" y1="196.9" x2="759.33" y2="185.87"/><line id="_路徑_292" data-name="&lt;路徑&gt;" class="cls-24" x1="795.3" y1="198.6" x2="759.33" y2="187.58"/><line id="_路徑_293" data-name="&lt;路徑&gt;" class="cls-24" x1="795.3" y1="200.31" x2="759.33" y2="189.28"/><line id="_路徑_294" data-name="&lt;路徑&gt;" class="cls-24" x1="795.3" y1="202.01" x2="759.33" y2="190.99"/><line id="_路徑_295" data-name="&lt;路徑&gt;" class="cls-24" x1="795.3" y1="203.71" x2="759.33" y2="192.69"/><line id="_路徑_296" data-name="&lt;路徑&gt;" class="cls-24" x1="795.3" y1="205.42" x2="759.33" y2="194.39"/><line id="_路徑_297" data-name="&lt;路徑&gt;" class="cls-24" x1="795.3" y1="207.12" x2="759.33" y2="196.09"/><line id="_路徑_298" data-name="&lt;路徑&gt;" class="cls-24" x1="795.3" y1="208.82" x2="759.33" y2="197.8"/><line id="_路徑_299" data-name="&lt;路徑&gt;" class="cls-24" x1="795.3" y1="210.53" x2="759.33" y2="199.5"/><line id="_路徑_300" data-name="&lt;路徑&gt;" class="cls-24" x1="795.3" y1="212.23" x2="759.33" y2="201.21"/><line id="_路徑_301" data-name="&lt;路徑&gt;" class="cls-24" x1="795.3" y1="213.93" x2="759.33" y2="202.91"/></g></g></g></g><g id="_群組_23" data-name="&lt;群組&gt;"><path id="_路徑_302" data-name="&lt;路徑&gt;" class="cls-21" d="M770.13,170a.54.54,0,0,0-.53-.82H744.87a.54.54,0,0,0-.53.82l1.47,3.26a1.52,1.52,0,0,0,1.27.82h20.3a1.52,1.52,0,0,0,1.27-.82Z"/><path id="_路徑_303" data-name="&lt;路徑&gt;" class="cls-21" d="M770.13,212.22a.54.54,0,0,1-.53.82H744.87a.54.54,0,0,1-.53-.82l1.47-3.26a1.52,1.52,0,0,1,1.27-.82h20.3a1.52,1.52,0,0,1,1.27.82Z"/><g id="_剪裁群組_3" data-name="&lt;剪裁群組&gt;"><rect id="_剪裁路徑_8" data-name="&lt;剪裁路徑&gt;" class="cls-2" x="746.18" y="174.05" width="22.1" height="34.09" rx="1.8" ry="1.8"/><g class="cls-25"><rect id="_路徑_304" data-name="&lt;路徑&gt;" class="cls-23" x="746.18" y="174.05" width="22.1" height="34.09"/><g id="_群組_24" data-name="&lt;群組&gt;"><line id="_路徑_305" data-name="&lt;路徑&gt;" class="cls-24" x1="775.38" y1="177.24" x2="739.4" y2="166.21"/><line id="_路徑_306" data-name="&lt;路徑&gt;" class="cls-24" x1="775.38" y1="178.94" x2="739.4" y2="167.91"/><line id="_路徑_307" data-name="&lt;路徑&gt;" class="cls-24" x1="775.38" y1="180.64" x2="739.4" y2="169.62"/><line id="_路徑_308" data-name="&lt;路徑&gt;" class="cls-24" x1="775.38" y1="182.35" x2="739.4" y2="171.32"/><line id="_路徑_309" data-name="&lt;路徑&gt;" class="cls-24" x1="775.38" y1="184.05" x2="739.4" y2="173.02"/><line id="_路徑_310" data-name="&lt;路徑&gt;" class="cls-24" x1="775.38" y1="185.75" x2="739.4" y2="174.73"/><line id="_路徑_311" data-name="&lt;路徑&gt;" class="cls-24" x1="775.38" y1="187.46" x2="739.4" y2="176.43"/><line id="_路徑_312" data-name="&lt;路徑&gt;" class="cls-24" x1="775.38" y1="189.16" x2="739.4" y2="178.14"/><line id="_路徑_313" data-name="&lt;路徑&gt;" class="cls-24" x1="775.38" y1="190.86" x2="739.4" y2="179.84"/><line id="_路徑_314" data-name="&lt;路徑&gt;" class="cls-24" x1="775.38" y1="192.57" x2="739.4" y2="181.54"/><line id="_路徑_315" data-name="&lt;路徑&gt;" class="cls-24" x1="775.38" y1="194.27" x2="739.4" y2="183.24"/><line id="_路徑_316" data-name="&lt;路徑&gt;" class="cls-24" x1="775.38" y1="195.97" x2="739.4" y2="184.95"/><line id="_路徑_317" data-name="&lt;路徑&gt;" class="cls-24" x1="775.38" y1="197.68" x2="739.4" y2="186.65"/><line id="_路徑_318" data-name="&lt;路徑&gt;" class="cls-24" x1="775.38" y1="199.38" x2="739.4" y2="188.36"/><line id="_路徑_319" data-name="&lt;路徑&gt;" class="cls-24" x1="775.38" y1="201.08" x2="739.4" y2="190.06"/><line id="_路徑_320" data-name="&lt;路徑&gt;" class="cls-24" x1="775.38" y1="202.79" x2="739.4" y2="191.76"/><line id="_路徑_321" data-name="&lt;路徑&gt;" class="cls-24" x1="775.38" y1="204.49" x2="739.4" y2="193.47"/><line id="_路徑_322" data-name="&lt;路徑&gt;" class="cls-24" x1="775.38" y1="206.19" x2="739.4" y2="195.17"/><line id="_路徑_323" data-name="&lt;路徑&gt;" class="cls-24" x1="775.38" y1="207.9" x2="739.4" y2="196.87"/><line id="_路徑_324" data-name="&lt;路徑&gt;" class="cls-24" x1="775.38" y1="209.6" x2="739.4" y2="198.58"/><line id="_路徑_325" data-name="&lt;路徑&gt;" class="cls-24" x1="775.38" y1="211.3" x2="739.4" y2="200.28"/><line id="_路徑_326" data-name="&lt;路徑&gt;" class="cls-24" x1="775.38" y1="213.01" x2="739.4" y2="201.98"/><line id="_路徑_327" data-name="&lt;路徑&gt;" class="cls-24" x1="775.38" y1="214.71" x2="739.4" y2="203.69"/><line id="_路徑_328" data-name="&lt;路徑&gt;" class="cls-24" x1="775.38" y1="216.41" x2="739.4" y2="205.39"/></g></g></g></g><g id="_群組_25" data-name="&lt;群組&gt;"><path id="_路徑_329" data-name="&lt;路徑&gt;" class="cls-21" d="M800.13,170a.54.54,0,0,0-.53-.82H774.88a.54.54,0,0,0-.53.82l1.47,3.26a1.52,1.52,0,0,0,1.27.82h20.3a1.52,1.52,0,0,0,1.27-.82Z"/><path id="_路徑_330" data-name="&lt;路徑&gt;" class="cls-21" d="M800.13,212.22a.54.54,0,0,1-.53.82H774.88a.54.54,0,0,1-.53-.82l1.47-3.26a1.52,1.52,0,0,1,1.27-.82h20.3a1.52,1.52,0,0,1,1.27.82Z"/><g id="_剪裁群組_4" data-name="&lt;剪裁群組&gt;"><rect id="_剪裁路徑_9" data-name="&lt;剪裁路徑&gt;" class="cls-2" x="776.19" y="174.05" width="22.1" height="34.09" rx="1.8" ry="1.8"/><g class="cls-26"><rect id="_路徑_331" data-name="&lt;路徑&gt;" class="cls-23" x="776.19" y="174.05" width="22.1" height="34.09"/><g id="_群組_26" data-name="&lt;群組&gt;"><line id="_路徑_332" data-name="&lt;路徑&gt;" class="cls-24" x1="805.38" y1="177.24" x2="769.4" y2="166.21"/><line id="_路徑_333" data-name="&lt;路徑&gt;" class="cls-24" x1="805.38" y1="178.94" x2="769.4" y2="167.91"/><line id="_路徑_334" data-name="&lt;路徑&gt;" class="cls-24" x1="805.38" y1="180.64" x2="769.4" y2="169.62"/><line id="_路徑_335" data-name="&lt;路徑&gt;" class="cls-24" x1="805.38" y1="182.35" x2="769.4" y2="171.32"/><line id="_路徑_336" data-name="&lt;路徑&gt;" class="cls-24" x1="805.38" y1="184.05" x2="769.4" y2="173.02"/><line id="_路徑_337" data-name="&lt;路徑&gt;" class="cls-24" x1="805.38" y1="185.75" x2="769.4" y2="174.73"/><line id="_路徑_338" data-name="&lt;路徑&gt;" class="cls-24" x1="805.38" y1="187.46" x2="769.4" y2="176.43"/><line id="_路徑_339" data-name="&lt;路徑&gt;" class="cls-24" x1="805.38" y1="189.16" x2="769.4" y2="178.14"/><line id="_路徑_340" data-name="&lt;路徑&gt;" class="cls-24" x1="805.38" y1="190.86" x2="769.4" y2="179.84"/><line id="_路徑_341" data-name="&lt;路徑&gt;" class="cls-24" x1="805.38" y1="192.57" x2="769.4" y2="181.54"/><line id="_路徑_342" data-name="&lt;路徑&gt;" class="cls-24" x1="805.38" y1="194.27" x2="769.4" y2="183.24"/><line id="_路徑_343" data-name="&lt;路徑&gt;" class="cls-24" x1="805.38" y1="195.97" x2="769.4" y2="184.95"/><line id="_路徑_344" data-name="&lt;路徑&gt;" class="cls-24" x1="805.38" y1="197.68" x2="769.4" y2="186.65"/><line id="_路徑_345" data-name="&lt;路徑&gt;" class="cls-24" x1="805.38" y1="199.38" x2="769.4" y2="188.36"/><line id="_路徑_346" data-name="&lt;路徑&gt;" class="cls-24" x1="805.38" y1="201.08" x2="769.4" y2="190.06"/><line id="_路徑_347" data-name="&lt;路徑&gt;" class="cls-24" x1="805.38" y1="202.79" x2="769.4" y2="191.76"/><line id="_路徑_348" data-name="&lt;路徑&gt;" class="cls-24" x1="805.38" y1="204.49" x2="769.4" y2="193.47"/><line id="_路徑_349" data-name="&lt;路徑&gt;" class="cls-24" x1="805.38" y1="206.19" x2="769.4" y2="195.17"/><line id="_路徑_350" data-name="&lt;路徑&gt;" class="cls-24" x1="805.38" y1="207.9" x2="769.4" y2="196.87"/><line id="_路徑_351" data-name="&lt;路徑&gt;" class="cls-24" x1="805.38" y1="209.6" x2="769.4" y2="198.58"/><line id="_路徑_352" data-name="&lt;路徑&gt;" class="cls-24" x1="805.38" y1="211.3" x2="769.4" y2="200.28"/><line id="_路徑_353" data-name="&lt;路徑&gt;" class="cls-24" x1="805.38" y1="213.01" x2="769.4" y2="201.98"/><line id="_路徑_354" data-name="&lt;路徑&gt;" class="cls-24" x1="805.38" y1="214.71" x2="769.4" y2="203.69"/><line id="_路徑_355" data-name="&lt;路徑&gt;" class="cls-24" x1="805.38" y1="216.41" x2="769.4" y2="205.39"/></g></g></g></g><g id="_群組_27" data-name="&lt;群組&gt;"><g id="_群組_28" data-name="&lt;群組&gt;"><rect id="_路徑_356" data-name="&lt;路徑&gt;" class="cls-18" x="803.95" y="143.21" width="13.15" height="7.11"/><rect id="_路徑_357" data-name="&lt;路徑&gt;" class="cls-18" x="803.95" y="205.58" width="13.15" height="7.11"/></g><g id="_剪裁群組_5" data-name="&lt;剪裁群組&gt;"><rect id="_剪裁路徑_10" data-name="&lt;剪裁路徑&gt;" class="cls-1" x="800.2" y="147.39" width="20.64" height="61.12"/><g class="cls-27"><g id="_群組_29" data-name="&lt;群組&gt;"><g id="_群組_30" data-name="&lt;群組&gt;"><line id="_路徑_358" data-name="&lt;路徑&gt;" class="cls-20" x1="822.48" y1="148.33" x2="798.88" y2="148.33"/><line id="_路徑_359" data-name="&lt;路徑&gt;" class="cls-20" x1="822.48" y1="149.58" x2="798.88" y2="149.58"/><line id="_路徑_360" data-name="&lt;路徑&gt;" class="cls-20" x1="822.48" y1="150.82" x2="798.88" y2="150.82"/><line id="_路徑_361" data-name="&lt;路徑&gt;" class="cls-20" x1="822.48" y1="152.06" x2="798.88" y2="152.06"/><line id="_路徑_362" data-name="&lt;路徑&gt;" class="cls-20" x1="822.48" y1="153.3" x2="798.88" y2="153.3"/><line id="_路徑_363" data-name="&lt;路徑&gt;" class="cls-20" x1="822.48" y1="154.54" x2="798.88" y2="154.54"/><line id="_路徑_364" data-name="&lt;路徑&gt;" class="cls-20" x1="822.48" y1="155.78" x2="798.88" y2="155.78"/><line id="_路徑_365" data-name="&lt;路徑&gt;" class="cls-20" x1="822.48" y1="157.03" x2="798.88" y2="157.03"/><line id="_路徑_366" data-name="&lt;路徑&gt;" class="cls-20" x1="822.48" y1="158.27" x2="798.88" y2="158.27"/><line id="_路徑_367" data-name="&lt;路徑&gt;" class="cls-20" x1="822.48" y1="159.51" x2="798.88" y2="159.51"/><line id="_路徑_368" data-name="&lt;路徑&gt;" class="cls-20" x1="822.48" y1="160.75" x2="798.88" y2="160.75"/><line id="_路徑_369" data-name="&lt;路徑&gt;" class="cls-20" x1="822.48" y1="161.99" x2="798.88" y2="161.99"/><line id="_路徑_370" data-name="&lt;路徑&gt;" class="cls-20" x1="822.48" y1="163.23" x2="798.88" y2="163.23"/><line id="_路徑_371" data-name="&lt;路徑&gt;" class="cls-20" x1="822.48" y1="164.48" x2="798.88" y2="164.48"/><line id="_路徑_372" data-name="&lt;路徑&gt;" class="cls-20" x1="822.48" y1="165.72" x2="798.88" y2="165.72"/><line id="_路徑_373" data-name="&lt;路徑&gt;" class="cls-20" x1="822.48" y1="166.96" x2="798.88" y2="166.96"/><line id="_路徑_374" data-name="&lt;路徑&gt;" class="cls-20" x1="822.48" y1="168.2" x2="798.88" y2="168.2"/><line id="_路徑_375" data-name="&lt;路徑&gt;" class="cls-20" x1="822.48" y1="169.44" x2="798.88" y2="169.44"/><line id="_路徑_376" data-name="&lt;路徑&gt;" class="cls-20" x1="822.48" y1="170.68" x2="798.88" y2="170.68"/><line id="_路徑_377" data-name="&lt;路徑&gt;" class="cls-20" x1="822.48" y1="171.93" x2="798.88" y2="171.93"/><line id="_路徑_378" data-name="&lt;路徑&gt;" class="cls-20" x1="822.48" y1="173.17" x2="798.88" y2="173.17"/><line id="_路徑_379" data-name="&lt;路徑&gt;" class="cls-20" x1="822.48" y1="174.41" x2="798.88" y2="174.41"/><line id="_路徑_380" data-name="&lt;路徑&gt;" class="cls-20" x1="822.48" y1="175.65" x2="798.88" y2="175.65"/><line id="_路徑_381" data-name="&lt;路徑&gt;" class="cls-20" x1="822.48" y1="176.89" x2="798.88" y2="176.89"/><line id="_路徑_382" data-name="&lt;路徑&gt;" class="cls-20" x1="822.48" y1="178.13" x2="798.88" y2="178.13"/><line id="_路徑_383" data-name="&lt;路徑&gt;" class="cls-20" x1="822.48" y1="179.38" x2="798.88" y2="179.38"/><line id="_路徑_384" data-name="&lt;路徑&gt;" class="cls-20" x1="822.48" y1="180.62" x2="798.88" y2="180.62"/><line id="_路徑_385" data-name="&lt;路徑&gt;" class="cls-20" x1="822.48" y1="181.86" x2="798.88" y2="181.86"/><line id="_路徑_386" data-name="&lt;路徑&gt;" class="cls-20" x1="822.48" y1="183.1" x2="798.88" y2="183.1"/><line id="_路徑_387" data-name="&lt;路徑&gt;" class="cls-20" x1="822.48" y1="184.34" x2="798.88" y2="184.34"/><line id="_路徑_388" data-name="&lt;路徑&gt;" class="cls-20" x1="822.48" y1="185.58" x2="798.88" y2="185.58"/><line id="_路徑_389" data-name="&lt;路徑&gt;" class="cls-20" x1="822.48" y1="186.83" x2="798.88" y2="186.83"/><line id="_路徑_390" data-name="&lt;路徑&gt;" class="cls-20" x1="822.48" y1="188.07" x2="798.88" y2="188.07"/><line id="_路徑_391" data-name="&lt;路徑&gt;" class="cls-20" x1="822.48" y1="189.31" x2="798.88" y2="189.31"/><line id="_路徑_392" data-name="&lt;路徑&gt;" class="cls-20" x1="822.48" y1="190.55" x2="798.88" y2="190.55"/><line id="_路徑_393" data-name="&lt;路徑&gt;" class="cls-20" x1="822.48" y1="191.79" x2="798.88" y2="191.79"/><line id="_路徑_394" data-name="&lt;路徑&gt;" class="cls-20" x1="822.48" y1="193.04" x2="798.88" y2="193.04"/><line id="_路徑_395" data-name="&lt;路徑&gt;" class="cls-20" x1="822.48" y1="194.28" x2="798.88" y2="194.28"/><line id="_路徑_396" data-name="&lt;路徑&gt;" class="cls-20" x1="822.48" y1="195.52" x2="798.88" y2="195.52"/><line id="_路徑_397" data-name="&lt;路徑&gt;" class="cls-20" x1="822.48" y1="196.76" x2="798.88" y2="196.76"/><line id="_路徑_398" data-name="&lt;路徑&gt;" class="cls-20" x1="822.48" y1="198" x2="798.88" y2="198"/><line id="_路徑_399" data-name="&lt;路徑&gt;" class="cls-20" x1="822.48" y1="199.24" x2="798.88" y2="199.24"/><line id="_路徑_400" data-name="&lt;路徑&gt;" class="cls-20" x1="822.48" y1="200.48" x2="798.88" y2="200.48"/><line id="_路徑_401" data-name="&lt;路徑&gt;" class="cls-20" x1="822.48" y1="201.73" x2="798.88" y2="201.73"/><line id="_路徑_402" data-name="&lt;路徑&gt;" class="cls-20" x1="822.48" y1="202.97" x2="798.88" y2="202.97"/><line id="_路徑_403" data-name="&lt;路徑&gt;" class="cls-20" x1="822.48" y1="204.21" x2="798.88" y2="204.21"/><line id="_路徑_404" data-name="&lt;路徑&gt;" class="cls-20" x1="822.48" y1="205.45" x2="798.88" y2="205.45"/><line id="_路徑_405" data-name="&lt;路徑&gt;" class="cls-20" x1="822.48" y1="206.69" x2="798.88" y2="206.69"/><line id="_路徑_406" data-name="&lt;路徑&gt;" class="cls-20" x1="822.48" y1="207.94" x2="798.88" y2="207.94"/></g></g></g></g></g></g><g id="_群組_31" data-name="&lt;群組&gt;"><g id="_群組_32" data-name="&lt;群組&gt;"><path id="_路徑_407" data-name="&lt;路徑&gt;" class="cls-28" d="M859.18,164.9s-9.55-32-6.84-55l16.22,56.37L866,171.34Z"/></g><g id="_群組_33" data-name="&lt;群組&gt;"><path id="_路徑_408" data-name="&lt;路徑&gt;" class="cls-29" d="M856.95,164.07s28.09-18,41.08-37.21L849,159l-1.37,5.52Z"/></g><path id="_複合路徑_3" data-name="&lt;複合路徑&gt;" class="cls-30" d="M827.57,178.87c3.1,2.55,6.9,2.09,10,.08a11.73,11.73,0,0,0,4.53-5.73c.54-1.23,1-2.55,1.61-3.92a6.32,6.32,0,0,1,2.93-3.28,45,45,0,0,1,6-2.1c-.5-.24-.26-6.35-.27-7.07a37.69,37.69,0,0,1-4.09,1.88c-2.81,1.42-6.32,4-7.09,7.43.09-.38-3.31-1.69-3.68-1.81a9.39,9.39,0,0,0-10.61,3.28C824.56,170.88,824.09,176,827.57,178.87Zm2.4-9.23c1.78-2.7,4.86-3.8,6.88-2.47s2.23,4.6.45,7.3-4.86,3.8-6.88,2.47S828.19,172.34,830,169.64Z"/><circle id="_路徑_409" data-name="&lt;路徑&gt;" class="cls-31" cx="861.31" cy="155.99" r="0.88" transform="translate(415.57 909.32) rotate(-69.65)"/><path id="_複合路徑_4" data-name="&lt;複合路徑&gt;" class="cls-31" d="M859.38,164.73s2.27,7.53,3.72,9l.37.37a30.79,30.79,0,0,0,2,17.46,7.21,7.21,0,0,0,6.92,4.19c7.3-.46,7.7-10.68,5.29-15.77a10.23,10.23,0,0,0-4.86-4.59s-3.94-1.5-6.16,1.26c0,0,3.56-8,1.15-13.32a62.75,62.75,0,0,0-3.13,6.65c0,.12-.09.24-.13.37Zm10.22,13c2.36-.54,5.08,2.5,6.06,6.79s-.13,8.21-2.5,8.75-5.08-2.5-6.06-6.79S867.24,178.3,869.6,177.76Z"/></g></svg>