<svg id="圖層_1" data-name="圖層 1" xmlns="http://www.w3.org/2000/svg" xmlns:xlink="http://www.w3.org/1999/xlink" viewBox="0 0 1917 1835.6"><defs><style>.cls-1{fill:#f3eab5;}.cls-2{fill:#94c035;}.cls-3{fill:#fff;}.cls-4{fill:#381c0e;}.cls-5{fill:#8c652c;}.cls-20,.cls-23,.cls-24,.cls-6{fill:none;}.cls-6{stroke:#898989;stroke-width:2.91px;}.cls-10,.cls-20,.cls-24,.cls-6{stroke-miterlimit:10;}.cls-7{fill:#e5ac61;}.cls-8{fill:#d8cb82;}.cls-9{fill:#b4b4b5;}.cls-10{fill:#e5b372;stroke:#d29037;stroke-width:0.77px;}.cls-11{fill:#0b1c38;}.cls-12{fill:#d29037;}.cls-13{fill:#fff298;}.cls-14{fill:#ebd700;}.cls-15{fill:#231700;}.cls-16{fill:#724c00;}.cls-17{fill:#513400;}.cls-18{fill:#c5a070;}.cls-19{clip-path:url(#clip-path);}.cls-20{stroke:#e2cf53;stroke-width:1px;}.cls-21{fill:#c8bb9b;}.cls-22{clip-path:url(#clip-path-2);}.cls-24{stroke:#cbe08e;stroke-width:0.25px;}.cls-25{clip-path:url(#clip-path-3);}.cls-26{clip-path:url(#clip-path-4);}.cls-27{clip-path:url(#clip-path-5);}.cls-28{fill:#898989;}.cls-29{fill:#c8c9ca;}.cls-30,.cls-31{fill:#231815;stroke:#595757;stroke-linecap:round;stroke-linejoin:round;}.cls-30{stroke-width:0.74px;}.cls-31{stroke-width:0.74px;}</style><clipPath id="clip-path"><rect id="_剪裁路徑_" data-name="&lt;剪裁路徑&gt;" class="cls-1" x="1466.89" y="219.99" width="38.54" height="114.13"/></clipPath><clipPath id="clip-path-2"><rect id="_剪裁路徑_2" data-name="&lt;剪裁路徑&gt;" class="cls-2" x="1431.45" y="269.07" width="41.27" height="63.66" rx="3.36" ry="3.36"/></clipPath><clipPath id="clip-path-3"><rect id="_剪裁路徑_3" data-name="&lt;剪裁路徑&gt;" class="cls-2" x="1394.24" y="273.7" width="41.27" height="63.66" rx="3.36" ry="3.36"/></clipPath><clipPath id="clip-path-4"><rect id="_剪裁路徑_4" data-name="&lt;剪裁路徑&gt;" class="cls-2" x="1450.26" y="273.7" width="41.27" height="63.66" rx="3.36" ry="3.36"/></clipPath><clipPath id="clip-path-5"><rect id="_剪裁路徑_5" data-name="&lt;剪裁路徑&gt;" class="cls-1" x="1495.11" y="223.92" width="38.55" height="114.13"/></clipPath></defs><title>bg</title><rect class="cls-3" width="1917" height="1835.6"/><g id="_群組_" data-name="&lt;群組&gt;"><g id="_群組_2" data-name="&lt;群組&gt;"><path id="_路徑_" data-name="&lt;路徑&gt;" class="cls-2" d="M1032.53,1795.1c-43.61-1.06-75.82-7.94-107-14.59-7.7-1.64-15.36-3.28-23.15-4.81-55.52-10.94-136.2-20.21-210.57-24.18-4.52-.25-7.53-1.38-6.7-2.48s5.13-1.84,9.65-1.6c76.75,4.1,160.14,13.69,217.61,25,8,1.57,15.8,3.24,23.68,4.92,30.45,6.5,59.21,12.65,97.5,13.59,37,.9,71.16-1.91,93.62-7.73,3.16-.82,6-1.69,8.74-2.58,5.86.43,11.59.84,17.14,1.23-4.15,1.49-8.56,3-13.75,4.3C1113.46,1792.87,1074.53,1796.13,1032.53,1795.1Z"/><path id="_路徑_2" data-name="&lt;路徑&gt;" class="cls-2" d="M1152.47,1774l.17-.08c1.18-.54,2.38-1.06,3.57-1.61s2.56-1.16,3.85-1.74a163.77,163.77,0,0,1,25.76-9.49c27.47-7.48,67.13-11.8,117.86-12.85,16.33-.34,35,.2,53,.72,24.9.72,45-1.7,73.43.07,5.64.85.26.48,7,1.19a16.65,16.65,0,0,1,4.37,1.9c0,.85-3.71,2.41-7.18,2.19-21.64-1.39-52.28-.42-78.92-1.19-18-.52-35-1-49.71-.71-46.58,1-82.71,4.85-107.42,11.57a144.69,144.69,0,0,0-21.56,7.84c-1.95.86-3.87,1.73-5.78,2.62l-1.77.8-.17.07c-2.3,1.05-13.38,5.52-15.83,6.56-5.67-.34-11.46-.86-17.14-1.23C1138.58,1779.56,1150,1775.16,1152.47,1774Z"/></g></g><rect id="_路徑_3" data-name="&lt;路徑&gt;" class="cls-4" x="1599.46" y="1265.31" width="35.79" height="14.99"/><g id="_群組_3" data-name="&lt;群組&gt;"><path id="_路徑_4" data-name="&lt;路徑&gt;" class="cls-5" d="M1937.6,1275.3H1593.71c-8.12,0-14.7,5.12-14.7,11.45V1414.2h72.87v-55.62c0-6.26,6.49-11.33,14.49-11.33h92.46c8,0,14.5,5.07,14.5,11.33v92.26c0,6.26-6.49,11.33-14.5,11.33h-92.46a17.35,17.35,0,0,1-8.2-2H1579v69h373.28V1286.74C1952.29,1280.42,1945.71,1275.3,1937.6,1275.3Z"/></g><line id="_路徑_5" data-name="&lt;路徑&gt;" class="cls-6" x1="1613.52" y1="1415.2" x2="1613.52" y2="1439.18"/><ellipse id="_路徑_6" data-name="&lt;路徑&gt;" class="cls-4" cx="1864.12" cy="1333.97" rx="35.74" ry="35"/><rect id="_路徑_7" data-name="&lt;路徑&gt;" class="cls-3" x="1857.05" y="1310.5" width="14.15" height="46.94"/><rect id="_路徑_8" data-name="&lt;路徑&gt;" class="cls-7" x="1840.17" y="1452.84" width="47.91" height="12"/><path id="_路徑_9" data-name="&lt;路徑&gt;" class="cls-8" d="M1779.23,1529c-4.79,1.5-8.48,4-9.86,6.79a6.28,6.28,0,0,0-.24,5.16,35,35,0,0,0,3,5.81c2.58,4.36,5.25,8.87,2.31,14.92a10.91,10.91,0,0,1-5.86,5.69l-.44.21c-1.65.78-2.09,1-2,2.53a31,31,0,0,0,.44,3.65c.56,3.44,1.13,7-1.61,10.49a11.35,11.35,0,0,1-7.85,4.06l-.58-1.78a9.69,9.69,0,0,0,6.94-3.4c2.25-2.87,1.78-5.75,1.24-9.09a33.38,33.38,0,0,1-.46-3.86c-.11-2.74,1.36-3.45,3.08-4.26l.42-.2a9.08,9.08,0,0,0,5-4.83c2.52-5.18.31-8.9-2.24-13.21a36.1,36.1,0,0,1-3.12-6.12,8,8,0,0,1,.32-6.59c1.78-3.52,5.8-5.72,8.72-6.91a.92.92,0,0,1,.73-.66l.39-.09a4.12,4.12,0,0,1,1-.16,2.66,2.66,0,0,1,.63.08.91.91,0,0,1,.07,1.77Z"/><g id="_群組_4" data-name="&lt;群組&gt;"><g id="_群組_5" data-name="&lt;群組&gt;"><path id="_路徑_10" data-name="&lt;路徑&gt;" class="cls-9" d="M1760.58,1604h0l-1.93-1-1.07,1.89h0c-.86.24-3.16-5.75-5.12-13.32l-18.39-71c-2-7.56-1.57-7.67.86-.24l22.85,69.75C1760.13,1597.52,1761.42,1603.79,1760.58,1604Z"/></g><path id="_路徑_11" data-name="&lt;路徑&gt;" class="cls-3" d="M1751.27,1580.21c0,.31.08.63.13.87.63,3.36,1.76,6.88,2.73,10.22q.92,3.24,2,6.38a15.07,15.07,0,0,0,1.77,4.07c1,1.13.73-1.19.47-2.29-1.09-4.41-2.29-8.86-3.75-13.17-.61-1.8-1.17-3.63-1.87-5.38-.28-.72-.83-2-1.27-2S1751.19,1579.56,1751.27,1580.21Z"/></g><path id="_路徑_12" data-name="&lt;路徑&gt;" class="cls-8" d="M1753.36,1588.7c-.6,0-1.2-.09-1.77-.16a34.82,34.82,0,0,1-4.24-.81c-8.77-2.25-15.14-6.47-20-13.3a59.84,59.84,0,0,1-4.69-8.35c-2.53-5.12-5.15-10.41-9.93-13.41a55.09,55.09,0,0,0-5.9-3c-6.42-3-13.71-6.31-14.84-13a.92.92,0,0,1,.77-1.05.94.94,0,0,1,1.08.75c1,5.7,7.78,8.83,13.79,11.6a56.49,56.49,0,0,1,6.12,3.1c5.22,3.28,8,8.81,10.61,14.16a58.8,58.8,0,0,0,4.54,8.09c4.62,6.45,10.65,10.45,19,12.58.95.24,2.07.48,3.27.66.56.08,1.13.16,1.73.21s1.35.09,2,.09c.2.6.36,1.21.55,1.82C1754.71,1588.76,1754,1588.74,1753.36,1588.7Z"/><path id="_路徑_13" data-name="&lt;路徑&gt;" class="cls-2" d="M1428.42,1222.53c-22.31,19.69-188.87-.19-247.37,2.17-189.24-10.64-420.76,106.94-408.28,114,9.38,5.31,182.29-111.31,406.72-110,148.31,3.18,294,28.58,266.43-36.2-13.06-30.69-118.63-120.24-137.48-110.2C1352.73,1108,1471.73,1189.54,1428.42,1222.53Z"/><path id="_路徑_14" data-name="&lt;路徑&gt;" class="cls-2" d="M686.34,1752.37a58.73,58.73,0,0,1-9.28-1.72c-13.85-4.1-25.88-13.48-32.18-25.09a101.09,101.09,0,0,1-6.13-14.74c-2.32-6.56-3.59-9.91-7.77-15.79-3.82-5.37-15.63-5.92-22.34-7.19-1.41-.27-2.7-.84-2.66-2,.05-1.59.09-2.24,1.76-2.49,9.3,1.83,22.86,3.19,27.59,9.93,4.51,6.44,6,10.34,8.34,16.89a97.65,97.65,0,0,0,5.85,14.12c5.62,10.34,16.31,18.7,28.61,22.34a52.84,52.84,0,0,0,8.26,1.5c4.07.53,37.9,3.21,42.14,4.48,1.26.54-2.18,2.88-2.53,3.89,0,.06-25.71-2.67-25.74-2.61"/><g id="_群組_6" data-name="&lt;群組&gt;"><g id="_群組_7" data-name="&lt;群組&gt;"><g id="_群組_8" data-name="&lt;群組&gt;"><ellipse id="_路徑_15" data-name="&lt;路徑&gt;" class="cls-10" cx="1616.47" cy="1550.27" rx="22.95" ry="8.91"/><ellipse id="_路徑_16" data-name="&lt;路徑&gt;" class="cls-10" cx="1616.47" cy="1547.42" rx="22.95" ry="7.13"/></g><g id="_群組_9" data-name="&lt;群組&gt;"><path id="_路徑_17" data-name="&lt;路徑&gt;" class="cls-11" d="M1632.05,1502.61h-1.71a40,40,0,0,1-27.77,0h-1.7A40.94,40.94,0,0,0,1632.05,1502.61Z"/><path id="_路徑_18" data-name="&lt;路徑&gt;" class="cls-11" d="M1629.17,1502.61h-2.12a38.75,38.75,0,0,1-21.17,0h-2.12A39.87,39.87,0,0,0,1629.17,1502.61Z"/><path id="_路徑_19" data-name="&lt;路徑&gt;" class="cls-11" d="M1632.14,1503.68V1503a41.12,41.12,0,0,1-31.33,0v.67A42,42,0,0,0,1632.14,1503.68Z"/><path id="_路徑_20" data-name="&lt;路徑&gt;" class="cls-11" d="M1632.14,1504.78v-.67a42.26,42.26,0,0,1-31.33,0v.67A43,43,0,0,0,1632.14,1504.78Z"/><path id="_路徑_21" data-name="&lt;路徑&gt;" class="cls-11" d="M1618.78,1502.61h-4.64A37.82,37.82,0,0,0,1618.78,1502.61Z"/><path id="_路徑_22" data-name="&lt;路徑&gt;" class="cls-11" d="M1625.52,1502.61h-3.24a36.72,36.72,0,0,1-11.64,0h-3.24A38.83,38.83,0,0,0,1625.52,1502.61Z"/><path id="_路徑_23" data-name="&lt;路徑&gt;" class="cls-11" d="M1632.14,1533.23v-.63a69.34,69.34,0,0,1-31.33,0v.63A71.14,71.14,0,0,0,1632.14,1533.23Z"/><path id="_路徑_24" data-name="&lt;路徑&gt;" class="cls-11" d="M1632.14,1535.3v-.63a71.2,71.2,0,0,1-31.33,0v.63A73.24,73.24,0,0,0,1632.14,1535.3Z"/><path id="_路徑_25" data-name="&lt;路徑&gt;" class="cls-11" d="M1632.14,1532.2v-.63a68.44,68.44,0,0,1-31.33,0v.63A70.1,70.1,0,0,0,1632.14,1532.2Z"/><path id="_路徑_26" data-name="&lt;路徑&gt;" class="cls-11" d="M1632.14,1534.27v-.63a70.26,70.26,0,0,1-31.33,0v.63A72.18,72.18,0,0,0,1632.14,1534.27Z"/><path id="_路徑_27" data-name="&lt;路徑&gt;" class="cls-11" d="M1632.14,1537.37v-.67a73.58,73.58,0,0,1-31.33,0v.67A75.32,75.32,0,0,0,1632.14,1537.37Z"/><path id="_路徑_28" data-name="&lt;路徑&gt;" class="cls-11" d="M1632.14,1538.4v-.67a74.65,74.65,0,0,1-31.33,0v.67A76.35,76.35,0,0,0,1632.14,1538.4Z"/><path id="_路徑_29" data-name="&lt;路徑&gt;" class="cls-11" d="M1632.14,1527v-.64a64.26,64.26,0,0,1-31.33,0v.63A64.92,64.92,0,0,0,1632.14,1527Z"/><path id="_路徑_30" data-name="&lt;路徑&gt;" class="cls-11" d="M1632.14,1531.16v-.63a67.55,67.55,0,0,1-31.33,0v.63A69.06,69.06,0,0,0,1632.14,1531.16Z"/><path id="_路徑_31" data-name="&lt;路徑&gt;" class="cls-11" d="M1632.14,1528.06v-.63a65.08,65.08,0,0,1-31.33,0v.63A66,66,0,0,0,1632.14,1528.06Z"/><path id="_路徑_32" data-name="&lt;路徑&gt;" class="cls-11" d="M1632.14,1529.1v-.63a65.91,65.91,0,0,1-31.33,0v.63A67,67,0,0,0,1632.14,1529.1Z"/><path id="_路徑_33" data-name="&lt;路徑&gt;" class="cls-11" d="M1632.14,1530.13v-.63a66.71,66.71,0,0,1-31.33,0v.63A68,68,0,0,0,1632.14,1530.13Z"/><path id="_路徑_34" data-name="&lt;路徑&gt;" class="cls-11" d="M1632.14,1536.34v-.63a72.17,72.17,0,0,1-31.33,0v.63A74.27,74.27,0,0,0,1632.14,1536.34Z"/><path id="_路徑_35" data-name="&lt;路徑&gt;" class="cls-11" d="M1632.14,1545.65V1545a83,83,0,0,1-31.33,0v.68A83.71,83.71,0,0,0,1632.14,1545.65Z"/><path id="_路徑_36" data-name="&lt;路徑&gt;" class="cls-11" d="M1631.15,1547.86a2.08,2.08,0,0,0,.91-.82,85.21,85.21,0,0,1-31.18,0,2.09,2.09,0,0,0,.91.82A85.74,85.74,0,0,0,1631.15,1547.86Z"/><path id="_路徑_37" data-name="&lt;路徑&gt;" class="cls-11" d="M1632.14,1544.61v-.68a81.66,81.66,0,0,1-31.33,0v.68A82.61,82.61,0,0,0,1632.14,1544.61Z"/><path id="_路徑_38" data-name="&lt;路徑&gt;" class="cls-11" d="M1616.46,1549.49a86.63,86.63,0,0,1-13.46-1.1c2.73,1,7.73,1.61,13.47,1.61s10.76-.65,13.49-1.62A86.67,86.67,0,0,1,1616.46,1549.49Z"/><path id="_路徑_39" data-name="&lt;路徑&gt;" class="cls-11" d="M1632.14,1540.47v-.67a76.85,76.85,0,0,1-31.33,0v.67A78.43,78.43,0,0,0,1632.14,1540.47Z"/><path id="_路徑_40" data-name="&lt;路徑&gt;" class="cls-11" d="M1632.14,1539.44v-.67a75.73,75.73,0,0,1-31.33,0v.67A77.4,77.4,0,0,0,1632.14,1539.44Z"/><path id="_路徑_41" data-name="&lt;路徑&gt;" class="cls-11" d="M1632.14,1541.51v-.67a78,78,0,0,1-31.33,0v.67A79.47,79.47,0,0,0,1632.14,1541.51Z"/><path id="_路徑_42" data-name="&lt;路徑&gt;" class="cls-11" d="M1632.14,1543.58v-.68a80.4,80.4,0,0,1-31.33,0v.68A81.57,81.57,0,0,0,1632.14,1543.58Z"/><path id="_路徑_43" data-name="&lt;路徑&gt;" class="cls-11" d="M1632.14,1542.54v-.67a79.21,79.21,0,0,1-31.33,0v.67A80.51,80.51,0,0,0,1632.14,1542.54Z"/><path id="_路徑_44" data-name="&lt;路徑&gt;" class="cls-11" d="M1632.14,1526v-.64a63,63,0,0,1-31.33,0v.64A63.89,63.89,0,0,0,1632.14,1526Z"/><path id="_路徑_45" data-name="&lt;路徑&gt;" class="cls-11" d="M1632.14,1505.86v-.66a43.41,43.41,0,0,1-31.33,0v.66A44.06,44.06,0,0,0,1632.14,1505.86Z"/><path id="_路徑_46" data-name="&lt;路徑&gt;" class="cls-11" d="M1632.14,1512.29v-.66a49.38,49.38,0,0,1-31.33,0v.66A50.31,50.31,0,0,0,1632.14,1512.29Z"/><path id="_路徑_47" data-name="&lt;路徑&gt;" class="cls-11" d="M1632.14,1514.42v-.64a51.76,51.76,0,0,1-31.33,0v.64A52.41,52.41,0,0,0,1632.14,1514.42Z"/><path id="_路徑_48" data-name="&lt;路徑&gt;" class="cls-11" d="M1632.14,1511.22v-.66a48.25,48.25,0,0,1-31.33,0v.66A49.26,49.26,0,0,0,1632.14,1511.22Z"/><path id="_路徑_49" data-name="&lt;路徑&gt;" class="cls-11" d="M1632.14,1513.36v-.66a50.54,50.54,0,0,1-31.33,0v.66A51.37,51.37,0,0,0,1632.14,1513.36Z"/><path id="_路徑_50" data-name="&lt;路徑&gt;" class="cls-11" d="M1632.14,1506.93v-.66a44.29,44.29,0,0,1-31.33,0v.66A45.1,45.1,0,0,0,1632.14,1506.93Z"/><path id="_路徑_51" data-name="&lt;路徑&gt;" class="cls-11" d="M1632.14,1508v-.66a45.21,45.21,0,0,1-31.33,0v.66A46.12,46.12,0,0,0,1632.14,1508Z"/><path id="_路徑_52" data-name="&lt;路徑&gt;" class="cls-11" d="M1632.14,1510.15v-.66a47.2,47.2,0,0,1-31.33,0v.66A48.22,48.22,0,0,0,1632.14,1510.15Z"/><path id="_路徑_53" data-name="&lt;路徑&gt;" class="cls-11" d="M1632.14,1509.07v-.66a46.19,46.19,0,0,1-31.33,0v.66A47.17,47.17,0,0,0,1632.14,1509.07Z"/><path id="_路徑_54" data-name="&lt;路徑&gt;" class="cls-11" d="M1632.14,1515.47v-.64a52.6,52.6,0,0,1-31.33,0v.64A53.44,53.44,0,0,0,1632.14,1515.47Z"/><path id="_路徑_55" data-name="&lt;路徑&gt;" class="cls-11" d="M1632.14,1521.78v-.64a58.35,58.35,0,0,1-31.33,0v.64A59.67,59.67,0,0,0,1632.14,1521.78Z"/><path id="_路徑_56" data-name="&lt;路徑&gt;" class="cls-11" d="M1632.14,1523.88v-.64a60.56,60.56,0,0,1-31.33,0v.64A61.77,61.77,0,0,0,1632.14,1523.88Z"/><path id="_路徑_57" data-name="&lt;路徑&gt;" class="cls-11" d="M1632.14,1522.83v-.64a59.43,59.43,0,0,1-31.33,0v.64A60.71,60.71,0,0,0,1632.14,1522.83Z"/><path id="_路徑_58" data-name="&lt;路徑&gt;" class="cls-11" d="M1632.14,1524.93v-.64a61.76,61.76,0,0,1-31.33,0v.64A62.82,62.82,0,0,0,1632.14,1524.93Z"/><path id="_路徑_59" data-name="&lt;路徑&gt;" class="cls-11" d="M1632.14,1518.63V1518a55.3,55.3,0,0,1-31.33,0v.64A56.55,56.55,0,0,0,1632.14,1518.63Z"/><path id="_路徑_60" data-name="&lt;路徑&gt;" class="cls-11" d="M1632.14,1517.58v-.64a54.38,54.38,0,0,1-31.33,0v.64A55.51,55.51,0,0,0,1632.14,1517.58Z"/><path id="_路徑_61" data-name="&lt;路徑&gt;" class="cls-11" d="M1632.14,1516.52v-.64a53.48,53.48,0,0,1-31.33,0v.64A54.48,54.48,0,0,0,1632.14,1516.52Z"/><path id="_路徑_62" data-name="&lt;路徑&gt;" class="cls-11" d="M1632.14,1519.68V1519a56.29,56.29,0,0,1-31.33,0v.64A57.58,57.58,0,0,0,1632.14,1519.68Z"/><path id="_路徑_63" data-name="&lt;路徑&gt;" class="cls-11" d="M1632.14,1520.73v-.64a57.3,57.3,0,0,1-31.33,0v.64A58.64,58.64,0,0,0,1632.14,1520.73Z"/><path id="_路徑_64" data-name="&lt;路徑&gt;" class="cls-11" d="M1632.14,1546.68V1546a84.35,84.35,0,0,1-31.33,0v.68A84.73,84.73,0,0,0,1632.14,1546.68Z"/><path id="_路徑_65" data-name="&lt;路徑&gt;" class="cls-11" d="M1622.28,1502.61h-3.5a37.82,37.82,0,0,1-4.64,0h-3.5a36.72,36.72,0,0,0,11.64,0Z"/><path id="_路徑_66" data-name="&lt;路徑&gt;" class="cls-11" d="M1627.05,1502.61h-1.53a38.83,38.83,0,0,1-18.12,0h-1.53a38.75,38.75,0,0,0,21.17,0Z"/><path id="_路徑_67" data-name="&lt;路徑&gt;" class="cls-11" d="M1630.35,1502.61h-1.18a39.87,39.87,0,0,1-25.41,0h-1.18a40,40,0,0,0,27.77,0Z"/><path id="_路徑_68" data-name="&lt;路徑&gt;" class="cls-11" d="M1632.14,1503v-.39h-.08a40.94,40.94,0,0,1-31.18,0h-.06v.4a41.12,41.12,0,0,0,31.33,0Z"/><path id="_路徑_69" data-name="&lt;路徑&gt;" class="cls-11" d="M1632.14,1504.1v-.43a42,42,0,0,1-31.33,0v.43a42.26,42.26,0,0,0,31.33,0Z"/><path id="_路徑_70" data-name="&lt;路徑&gt;" class="cls-11" d="M1632.14,1505.2v-.42a43,43,0,0,1-31.33,0v.42a43.41,43.41,0,0,0,31.33,0Z"/><path id="_路徑_71" data-name="&lt;路徑&gt;" class="cls-11" d="M1632.14,1506.27v-.42a44.06,44.06,0,0,1-31.33,0v.42a44.29,44.29,0,0,0,31.33,0Z"/><path id="_路徑_72" data-name="&lt;路徑&gt;" class="cls-11" d="M1632.14,1507.35v-.42a45.1,45.1,0,0,1-31.33,0v.42a45.21,45.21,0,0,0,31.33,0Z"/><path id="_路徑_73" data-name="&lt;路徑&gt;" class="cls-11" d="M1632.14,1508.42V1508a46.12,46.12,0,0,1-31.33,0v.42a46.19,46.19,0,0,0,31.33,0Z"/><path id="_路徑_74" data-name="&lt;路徑&gt;" class="cls-11" d="M1632.14,1509.49v-.42a47.17,47.17,0,0,1-31.33,0v.42a47.2,47.2,0,0,0,31.33,0Z"/><path id="_路徑_75" data-name="&lt;路徑&gt;" class="cls-11" d="M1632.14,1510.56v-.42a48.22,48.22,0,0,1-31.33,0v.42a48.25,48.25,0,0,0,31.33,0Z"/><path id="_路徑_76" data-name="&lt;路徑&gt;" class="cls-11" d="M1632.14,1511.64v-.42a49.26,49.26,0,0,1-31.33,0v.42a49.38,49.38,0,0,0,31.33,0Z"/><path id="_路徑_77" data-name="&lt;路徑&gt;" class="cls-11" d="M1632.14,1512.71v-.42a50.31,50.31,0,0,1-31.33,0v.42a50.54,50.54,0,0,0,31.33,0Z"/><path id="_路徑_78" data-name="&lt;路徑&gt;" class="cls-11" d="M1632.14,1513.78v-.42a51.37,51.37,0,0,1-31.33,0v.41a51.76,51.76,0,0,0,31.33,0Z"/><path id="_路徑_79" data-name="&lt;路徑&gt;" class="cls-11" d="M1632.14,1514.83v-.41a52.41,52.41,0,0,1-31.33,0v.41a52.6,52.6,0,0,0,31.33,0Z"/><path id="_路徑_80" data-name="&lt;路徑&gt;" class="cls-11" d="M1632.14,1515.88v-.41a53.44,53.44,0,0,1-31.33,0v.41a53.48,53.48,0,0,0,31.33,0Z"/><path id="_路徑_81" data-name="&lt;路徑&gt;" class="cls-11" d="M1632.14,1516.93v-.41a54.48,54.48,0,0,1-31.33,0v.41a54.38,54.38,0,0,0,31.33,0Z"/><path id="_路徑_82" data-name="&lt;路徑&gt;" class="cls-11" d="M1632.14,1518v-.41a55.51,55.51,0,0,1-31.33,0v.41a55.3,55.3,0,0,0,31.33,0Z"/><path id="_路徑_83" data-name="&lt;路徑&gt;" class="cls-11" d="M1632.14,1519v-.41a56.55,56.55,0,0,1-31.33,0v.41a56.29,56.29,0,0,0,31.33,0Z"/><path id="_路徑_84" data-name="&lt;路徑&gt;" class="cls-11" d="M1632.14,1520.09v-.41a57.58,57.58,0,0,1-31.33,0v.41a57.3,57.3,0,0,0,31.33,0Z"/><path id="_路徑_85" data-name="&lt;路徑&gt;" class="cls-11" d="M1632.14,1521.14v-.41a58.64,58.64,0,0,1-31.33,0v.41a58.35,58.35,0,0,0,31.33,0Z"/><path id="_路徑_86" data-name="&lt;路徑&gt;" class="cls-11" d="M1632.14,1522.19v-.41a59.67,59.67,0,0,1-31.33,0v.41a59.43,59.43,0,0,0,31.33,0Z"/><path id="_路徑_87" data-name="&lt;路徑&gt;" class="cls-11" d="M1632.14,1523.24v-.41a60.71,60.71,0,0,1-31.33,0v.41a60.56,60.56,0,0,0,31.33,0Z"/><path id="_路徑_88" data-name="&lt;路徑&gt;" class="cls-11" d="M1632.14,1524.29v-.41a61.77,61.77,0,0,1-31.33,0v.41a61.76,61.76,0,0,0,31.33,0Z"/><path id="_路徑_89" data-name="&lt;路徑&gt;" class="cls-11" d="M1632.14,1525.34v-.41a62.82,62.82,0,0,1-31.33,0v.41a63,63,0,0,0,31.33,0Z"/><path id="_路徑_90" data-name="&lt;路徑&gt;" class="cls-11" d="M1632.14,1526.39V1526a63.89,63.89,0,0,1-31.33,0v.41a64.26,64.26,0,0,0,31.33,0Z"/><path id="_路徑_91" data-name="&lt;路徑&gt;" class="cls-11" d="M1632.14,1527.43v-.4a64.92,64.92,0,0,1-31.33,0v.4a65.08,65.08,0,0,0,31.33,0Z"/><path id="_路徑_92" data-name="&lt;路徑&gt;" class="cls-11" d="M1632.14,1528.46v-.4a66,66,0,0,1-31.33,0v.4a65.91,65.91,0,0,0,31.33,0Z"/><path id="_路徑_93" data-name="&lt;路徑&gt;" class="cls-11" d="M1632.14,1529.5v-.4a67,67,0,0,1-31.33,0v.4a66.71,66.71,0,0,0,31.33,0Z"/><path id="_路徑_94" data-name="&lt;路徑&gt;" class="cls-11" d="M1632.14,1530.53v-.4a68,68,0,0,1-31.33,0v.4a67.55,67.55,0,0,0,31.33,0Z"/><path id="_路徑_95" data-name="&lt;路徑&gt;" class="cls-11" d="M1632.14,1531.57v-.4a69.06,69.06,0,0,1-31.33,0v.4a68.44,68.44,0,0,0,31.33,0Z"/><path id="_路徑_96" data-name="&lt;路徑&gt;" class="cls-11" d="M1632.14,1532.6v-.4a70.1,70.1,0,0,1-31.33,0v.4a69.34,69.34,0,0,0,31.33,0Z"/><path id="_路徑_97" data-name="&lt;路徑&gt;" class="cls-11" d="M1632.14,1533.64v-.4a71.14,71.14,0,0,1-31.33,0v.4a70.26,70.26,0,0,0,31.33,0Z"/><path id="_路徑_98" data-name="&lt;路徑&gt;" class="cls-11" d="M1632.14,1534.67v-.4a72.18,72.18,0,0,1-31.33,0v.4a71.2,71.2,0,0,0,31.33,0Z"/><path id="_路徑_99" data-name="&lt;路徑&gt;" class="cls-11" d="M1632.14,1535.7v-.4a73.24,73.24,0,0,1-31.33,0v.4a72.17,72.17,0,0,0,31.33,0Z"/><path id="_路徑_100" data-name="&lt;路徑&gt;" class="cls-11" d="M1632.14,1536.7v-.36a74.27,74.27,0,0,1-31.33,0v.36a73.58,73.58,0,0,0,31.33,0Z"/><path id="_路徑_101" data-name="&lt;路徑&gt;" class="cls-11" d="M1632.14,1537.73v-.36a75.32,75.32,0,0,1-31.33,0v.36a74.65,74.65,0,0,0,31.33,0Z"/><path id="_路徑_102" data-name="&lt;路徑&gt;" class="cls-11" d="M1632.14,1538.77v-.36a76.35,76.35,0,0,1-31.33,0v.36a75.73,75.73,0,0,0,31.33,0Z"/><path id="_路徑_103" data-name="&lt;路徑&gt;" class="cls-11" d="M1632.14,1539.8v-.36a77.4,77.4,0,0,1-31.33,0v.36a76.85,76.85,0,0,0,31.33,0Z"/><path id="_路徑_104" data-name="&lt;路徑&gt;" class="cls-11" d="M1632.14,1540.83v-.36a78.43,78.43,0,0,1-31.33,0v.36a78,78,0,0,0,31.33,0Z"/><path id="_路徑_105" data-name="&lt;路徑&gt;" class="cls-11" d="M1632.14,1541.87v-.36a79.47,79.47,0,0,1-31.33,0v.36a79.21,79.21,0,0,0,31.33,0Z"/><path id="_路徑_106" data-name="&lt;路徑&gt;" class="cls-11" d="M1632.14,1542.9v-.36a80.51,80.51,0,0,1-31.33,0v.36a80.4,80.4,0,0,0,31.33,0Z"/><path id="_路徑_107" data-name="&lt;路徑&gt;" class="cls-11" d="M1632.14,1543.94v-.36a81.57,81.57,0,0,1-31.33,0v.36a81.66,81.66,0,0,0,31.33,0Z"/><path id="_路徑_108" data-name="&lt;路徑&gt;" class="cls-11" d="M1632.14,1545v-.36a82.61,82.61,0,0,1-31.33,0v.36a83,83,0,0,0,31.33,0Z"/><path id="_路徑_109" data-name="&lt;路徑&gt;" class="cls-11" d="M1632.14,1546v-.36a83.71,83.71,0,0,1-31.33,0v.36a84.35,84.35,0,0,0,31.33,0Z"/><path id="_路徑_110" data-name="&lt;路徑&gt;" class="cls-11" d="M1632.06,1547a.75.75,0,0,0,.08-.31v0a84.73,84.73,0,0,1-31.33,0v0h0a.74.74,0,0,0,.08.32,85.21,85.21,0,0,0,31.18,0Z"/><path id="_路徑_111" data-name="&lt;路徑&gt;" class="cls-11" d="M1630,1548.39a7.55,7.55,0,0,0,1.2-.53,85.74,85.74,0,0,1-29.36,0,7.64,7.64,0,0,0,1.2.53,83.3,83.3,0,0,0,27,0Z"/></g><g id="_群組_10" data-name="&lt;群組&gt;"><ellipse id="_路徑_112" data-name="&lt;路徑&gt;" class="cls-10" cx="1616.47" cy="1502.55" rx="22.95" ry="8.92"/><ellipse id="_路徑_113" data-name="&lt;路徑&gt;" class="cls-10" cx="1616.47" cy="1499.69" rx="22.95" ry="7.13"/><ellipse id="_路徑_114" data-name="&lt;路徑&gt;" class="cls-12" cx="1616.47" cy="1499.69" rx="13.77" ry="4.28"/></g></g><g id="_群組_11" data-name="&lt;群組&gt;"><g id="_群組_12" data-name="&lt;群組&gt;"><ellipse id="_路徑_115" data-name="&lt;路徑&gt;" class="cls-10" cx="1654.22" cy="1556.67" rx="22.95" ry="8.91"/><ellipse id="_路徑_116" data-name="&lt;路徑&gt;" class="cls-10" cx="1654.22" cy="1553.82" rx="22.95" ry="7.13"/></g><g id="_群組_13" data-name="&lt;群組&gt;"><path id="_路徑_117" data-name="&lt;路徑&gt;" class="cls-13" d="M1669.8,1509h-1.71a40,40,0,0,1-27.77,0h-1.7A40.94,40.94,0,0,0,1669.8,1509Z"/><path id="_路徑_118" data-name="&lt;路徑&gt;" class="cls-13" d="M1666.91,1509h-2.12a38.75,38.75,0,0,1-21.17,0h-2.12A39.87,39.87,0,0,0,1666.91,1509Z"/><path id="_路徑_119" data-name="&lt;路徑&gt;" class="cls-13" d="M1669.88,1510.07v-.67a41.12,41.12,0,0,1-31.33,0v.67A42,42,0,0,0,1669.88,1510.07Z"/><path id="_路徑_120" data-name="&lt;路徑&gt;" class="cls-13" d="M1669.88,1511.17v-.67a42.26,42.26,0,0,1-31.33,0v.67A43,43,0,0,0,1669.88,1511.17Z"/><path id="_路徑_121" data-name="&lt;路徑&gt;" class="cls-13" d="M1656.53,1509h-4.64A37.82,37.82,0,0,0,1656.53,1509Z"/><path id="_路徑_122" data-name="&lt;路徑&gt;" class="cls-13" d="M1663.27,1509H1660a36.72,36.72,0,0,1-11.64,0h-3.24A38.83,38.83,0,0,0,1663.27,1509Z"/><path id="_路徑_123" data-name="&lt;路徑&gt;" class="cls-13" d="M1669.88,1539.63V1539a69.34,69.34,0,0,1-31.33,0v.63A71.14,71.14,0,0,0,1669.88,1539.63Z"/><path id="_路徑_124" data-name="&lt;路徑&gt;" class="cls-13" d="M1669.88,1541.7v-.63a71.2,71.2,0,0,1-31.33,0v.63A73.24,73.24,0,0,0,1669.88,1541.7Z"/><path id="_路徑_125" data-name="&lt;路徑&gt;" class="cls-13" d="M1669.88,1538.6V1538a68.44,68.44,0,0,1-31.33,0v.63A70.1,70.1,0,0,0,1669.88,1538.6Z"/><path id="_路徑_126" data-name="&lt;路徑&gt;" class="cls-13" d="M1669.88,1540.67V1540a70.26,70.26,0,0,1-31.33,0v.63A72.18,72.18,0,0,0,1669.88,1540.67Z"/><path id="_路徑_127" data-name="&lt;路徑&gt;" class="cls-13" d="M1669.88,1543.77v-.67a73.58,73.58,0,0,1-31.33,0v.67A75.32,75.32,0,0,0,1669.88,1543.77Z"/><path id="_路徑_128" data-name="&lt;路徑&gt;" class="cls-13" d="M1669.88,1544.8v-.67a74.65,74.65,0,0,1-31.33,0v.67A76.35,76.35,0,0,0,1669.88,1544.8Z"/><path id="_路徑_129" data-name="&lt;路徑&gt;" class="cls-13" d="M1669.88,1533.43v-.64a64.26,64.26,0,0,1-31.33,0v.63A64.92,64.92,0,0,0,1669.88,1533.43Z"/><path id="_路徑_130" data-name="&lt;路徑&gt;" class="cls-13" d="M1669.88,1537.56v-.63a67.55,67.55,0,0,1-31.33,0v.63A69.06,69.06,0,0,0,1669.88,1537.56Z"/><path id="_路徑_131" data-name="&lt;路徑&gt;" class="cls-13" d="M1669.88,1534.46v-.63a65.08,65.08,0,0,1-31.33,0v.63A66,66,0,0,0,1669.88,1534.46Z"/><path id="_路徑_132" data-name="&lt;路徑&gt;" class="cls-13" d="M1669.88,1535.49v-.63a65.91,65.91,0,0,1-31.33,0v.63A67,67,0,0,0,1669.88,1535.49Z"/><path id="_路徑_133" data-name="&lt;路徑&gt;" class="cls-13" d="M1669.88,1536.53v-.63a66.71,66.71,0,0,1-31.33,0v.63A68,68,0,0,0,1669.88,1536.53Z"/><path id="_路徑_134" data-name="&lt;路徑&gt;" class="cls-13" d="M1669.88,1542.74v-.63a72.17,72.17,0,0,1-31.33,0v.63A74.27,74.27,0,0,0,1669.88,1542.74Z"/><path id="_路徑_135" data-name="&lt;路徑&gt;" class="cls-13" d="M1669.88,1552v-.68a83,83,0,0,1-31.33,0v.68A83.71,83.71,0,0,0,1669.88,1552Z"/><path id="_路徑_136" data-name="&lt;路徑&gt;" class="cls-13" d="M1668.9,1554.26a2.08,2.08,0,0,0,.91-.82,85.21,85.21,0,0,1-31.18,0,2.09,2.09,0,0,0,.91.82A85.74,85.74,0,0,0,1668.9,1554.26Z"/><path id="_路徑_137" data-name="&lt;路徑&gt;" class="cls-13" d="M1669.88,1551v-.68a81.66,81.66,0,0,1-31.33,0v.68A82.61,82.61,0,0,0,1669.88,1551Z"/><path id="_路徑_138" data-name="&lt;路徑&gt;" class="cls-13" d="M1654.21,1555.89a86.63,86.63,0,0,1-13.46-1.1c2.73,1,7.73,1.61,13.47,1.61s10.76-.65,13.49-1.62A86.67,86.67,0,0,1,1654.21,1555.89Z"/><path id="_路徑_139" data-name="&lt;路徑&gt;" class="cls-13" d="M1669.88,1546.87v-.67a76.85,76.85,0,0,1-31.33,0v.67A78.43,78.43,0,0,0,1669.88,1546.87Z"/><path id="_路徑_140" data-name="&lt;路徑&gt;" class="cls-13" d="M1669.88,1545.84v-.67a75.73,75.73,0,0,1-31.33,0v.67A77.41,77.41,0,0,0,1669.88,1545.84Z"/><path id="_路徑_141" data-name="&lt;路徑&gt;" class="cls-13" d="M1669.88,1547.91v-.67a78,78,0,0,1-31.33,0v.67A79.47,79.47,0,0,0,1669.88,1547.91Z"/><path id="_路徑_142" data-name="&lt;路徑&gt;" class="cls-13" d="M1669.88,1550v-.68a80.4,80.4,0,0,1-31.33,0v.68A81.57,81.57,0,0,0,1669.88,1550Z"/><path id="_路徑_143" data-name="&lt;路徑&gt;" class="cls-13" d="M1669.88,1548.94v-.67a79.21,79.21,0,0,1-31.33,0v.67A80.51,80.51,0,0,0,1669.88,1548.94Z"/><path id="_路徑_144" data-name="&lt;路徑&gt;" class="cls-13" d="M1669.88,1532.38v-.64a63,63,0,0,1-31.33,0v.64A63.89,63.89,0,0,0,1669.88,1532.38Z"/><path id="_路徑_145" data-name="&lt;路徑&gt;" class="cls-13" d="M1669.88,1512.26v-.66a43.41,43.41,0,0,1-31.33,0v.66A44.06,44.06,0,0,0,1669.88,1512.26Z"/><path id="_路徑_146" data-name="&lt;路徑&gt;" class="cls-13" d="M1669.88,1518.69V1518a49.38,49.38,0,0,1-31.33,0v.66A50.31,50.31,0,0,0,1669.88,1518.69Z"/><path id="_路徑_147" data-name="&lt;路徑&gt;" class="cls-13" d="M1669.88,1520.82v-.64a51.76,51.76,0,0,1-31.33,0v.64A52.41,52.41,0,0,0,1669.88,1520.82Z"/><path id="_路徑_148" data-name="&lt;路徑&gt;" class="cls-13" d="M1669.88,1517.62V1517a48.25,48.25,0,0,1-31.33,0v.66A49.26,49.26,0,0,0,1669.88,1517.62Z"/><path id="_路徑_149" data-name="&lt;路徑&gt;" class="cls-13" d="M1669.88,1519.76v-.66a50.54,50.54,0,0,1-31.33,0v.66A51.37,51.37,0,0,0,1669.88,1519.76Z"/><path id="_路徑_150" data-name="&lt;路徑&gt;" class="cls-13" d="M1669.88,1513.33v-.66a44.29,44.29,0,0,1-31.33,0v.66A45.1,45.1,0,0,0,1669.88,1513.33Z"/><path id="_路徑_151" data-name="&lt;路徑&gt;" class="cls-13" d="M1669.88,1514.4v-.66a45.21,45.21,0,0,1-31.33,0v.66A46.12,46.12,0,0,0,1669.88,1514.4Z"/><path id="_路徑_152" data-name="&lt;路徑&gt;" class="cls-13" d="M1669.88,1516.55v-.66a47.2,47.2,0,0,1-31.33,0v.66A48.22,48.22,0,0,0,1669.88,1516.55Z"/><path id="_路徑_153" data-name="&lt;路徑&gt;" class="cls-13" d="M1669.88,1515.47v-.66a46.19,46.19,0,0,1-31.33,0v.66A47.17,47.17,0,0,0,1669.88,1515.47Z"/><path id="_路徑_154" data-name="&lt;路徑&gt;" class="cls-13" d="M1669.88,1521.87v-.64a52.6,52.6,0,0,1-31.33,0v.64A53.44,53.44,0,0,0,1669.88,1521.87Z"/><path id="_路徑_155" data-name="&lt;路徑&gt;" class="cls-13" d="M1669.88,1528.18v-.64a58.35,58.35,0,0,1-31.33,0v.64A59.67,59.67,0,0,0,1669.88,1528.18Z"/><path id="_路徑_156" data-name="&lt;路徑&gt;" class="cls-13" d="M1669.88,1530.28v-.64a60.56,60.56,0,0,1-31.33,0v.64A61.77,61.77,0,0,0,1669.88,1530.28Z"/><path id="_路徑_157" data-name="&lt;路徑&gt;" class="cls-13" d="M1669.88,1529.23v-.64a59.43,59.43,0,0,1-31.33,0v.64A60.71,60.71,0,0,0,1669.88,1529.23Z"/><path id="_路徑_158" data-name="&lt;路徑&gt;" class="cls-13" d="M1669.88,1531.33v-.64a61.76,61.76,0,0,1-31.33,0v.64A62.82,62.82,0,0,0,1669.88,1531.33Z"/><path id="_路徑_159" data-name="&lt;路徑&gt;" class="cls-13" d="M1669.88,1525v-.64a55.3,55.3,0,0,1-31.33,0v.64A56.55,56.55,0,0,0,1669.88,1525Z"/><path id="_路徑_160" data-name="&lt;路徑&gt;" class="cls-13" d="M1669.88,1524v-.64a54.38,54.38,0,0,1-31.33,0v.64A55.51,55.51,0,0,0,1669.88,1524Z"/><path id="_路徑_161" data-name="&lt;路徑&gt;" class="cls-13" d="M1669.88,1522.92v-.64a53.48,53.48,0,0,1-31.33,0v.64A54.48,54.48,0,0,0,1669.88,1522.92Z"/><path id="_路徑_162" data-name="&lt;路徑&gt;" class="cls-13" d="M1669.88,1526.08v-.64a56.29,56.29,0,0,1-31.33,0v.64A57.58,57.58,0,0,0,1669.88,1526.08Z"/><path id="_路徑_163" data-name="&lt;路徑&gt;" class="cls-13" d="M1669.88,1527.13v-.64a57.3,57.3,0,0,1-31.33,0v.64A58.64,58.64,0,0,0,1669.88,1527.13Z"/><path id="_路徑_164" data-name="&lt;路徑&gt;" class="cls-13" d="M1669.88,1553.08v-.68a84.35,84.35,0,0,1-31.33,0v.68A84.73,84.73,0,0,0,1669.88,1553.08Z"/><path id="_路徑_165" data-name="&lt;路徑&gt;" class="cls-14" d="M1660,1509h-3.5a37.82,37.82,0,0,1-4.64,0h-3.5a36.72,36.72,0,0,0,11.64,0Z"/><path id="_路徑_166" data-name="&lt;路徑&gt;" class="cls-14" d="M1664.79,1509h-1.53a38.83,38.83,0,0,1-18.12,0h-1.53a38.75,38.75,0,0,0,21.17,0Z"/><path id="_路徑_167" data-name="&lt;路徑&gt;" class="cls-14" d="M1668.09,1509h-1.18a39.87,39.87,0,0,1-25.41,0h-1.18a40,40,0,0,0,27.77,0Z"/><path id="_路徑_168" data-name="&lt;路徑&gt;" class="cls-14" d="M1669.88,1509.4V1509h-.08a40.94,40.94,0,0,1-31.18,0h-.06v.4a41.12,41.12,0,0,0,31.33,0Z"/><path id="_路徑_169" data-name="&lt;路徑&gt;" class="cls-14" d="M1669.88,1510.5v-.43a42,42,0,0,1-31.33,0v.43a42.26,42.26,0,0,0,31.33,0Z"/><path id="_路徑_170" data-name="&lt;路徑&gt;" class="cls-14" d="M1669.88,1511.6v-.42a43,43,0,0,1-31.33,0v.42a43.41,43.41,0,0,0,31.33,0Z"/><path id="_路徑_171" data-name="&lt;路徑&gt;" class="cls-14" d="M1669.88,1512.67v-.42a44.06,44.06,0,0,1-31.33,0v.42a44.29,44.29,0,0,0,31.33,0Z"/><path id="_路徑_172" data-name="&lt;路徑&gt;" class="cls-14" d="M1669.88,1513.74v-.42a45.1,45.1,0,0,1-31.33,0v.42a45.21,45.21,0,0,0,31.33,0Z"/><path id="_路徑_173" data-name="&lt;路徑&gt;" class="cls-14" d="M1669.88,1514.82v-.42a46.12,46.12,0,0,1-31.33,0v.42a46.19,46.19,0,0,0,31.33,0Z"/><path id="_路徑_174" data-name="&lt;路徑&gt;" class="cls-14" d="M1669.88,1515.89v-.42a47.17,47.17,0,0,1-31.33,0v.42a47.2,47.2,0,0,0,31.33,0Z"/><path id="_路徑_175" data-name="&lt;路徑&gt;" class="cls-14" d="M1669.88,1517v-.42a48.22,48.22,0,0,1-31.33,0v.42a48.25,48.25,0,0,0,31.33,0Z"/><path id="_路徑_176" data-name="&lt;路徑&gt;" class="cls-14" d="M1669.88,1518v-.42a49.26,49.26,0,0,1-31.33,0v.42a49.38,49.38,0,0,0,31.33,0Z"/><path id="_路徑_177" data-name="&lt;路徑&gt;" class="cls-14" d="M1669.88,1519.11v-.42a50.31,50.31,0,0,1-31.33,0v.42a50.54,50.54,0,0,0,31.33,0Z"/><path id="_路徑_178" data-name="&lt;路徑&gt;" class="cls-14" d="M1669.88,1520.18v-.42a51.37,51.37,0,0,1-31.33,0v.41a51.76,51.76,0,0,0,31.33,0Z"/><path id="_路徑_179" data-name="&lt;路徑&gt;" class="cls-14" d="M1669.88,1521.23v-.41a52.41,52.41,0,0,1-31.33,0v.41a52.6,52.6,0,0,0,31.33,0Z"/><path id="_路徑_180" data-name="&lt;路徑&gt;" class="cls-14" d="M1669.88,1522.28v-.41a53.44,53.44,0,0,1-31.33,0v.41a53.48,53.48,0,0,0,31.33,0Z"/><path id="_路徑_181" data-name="&lt;路徑&gt;" class="cls-14" d="M1669.88,1523.33v-.41a54.48,54.48,0,0,1-31.33,0v.41a54.38,54.38,0,0,0,31.33,0Z"/><path id="_路徑_182" data-name="&lt;路徑&gt;" class="cls-14" d="M1669.88,1524.38V1524a55.51,55.51,0,0,1-31.33,0v.41a55.3,55.3,0,0,0,31.33,0Z"/><path id="_路徑_183" data-name="&lt;路徑&gt;" class="cls-14" d="M1669.88,1525.43V1525a56.55,56.55,0,0,1-31.33,0v.41a56.29,56.29,0,0,0,31.33,0Z"/><path id="_路徑_184" data-name="&lt;路徑&gt;" class="cls-14" d="M1669.88,1526.49v-.41a57.58,57.58,0,0,1-31.33,0v.41a57.3,57.3,0,0,0,31.33,0Z"/><path id="_路徑_185" data-name="&lt;路徑&gt;" class="cls-14" d="M1669.88,1527.54v-.41a58.64,58.64,0,0,1-31.33,0v.41a58.35,58.35,0,0,0,31.33,0Z"/><path id="_路徑_186" data-name="&lt;路徑&gt;" class="cls-14" d="M1669.88,1528.59v-.41a59.67,59.67,0,0,1-31.33,0v.41a59.43,59.43,0,0,0,31.33,0Z"/><path id="_路徑_187" data-name="&lt;路徑&gt;" class="cls-14" d="M1669.88,1529.64v-.41a60.71,60.71,0,0,1-31.33,0v.41a60.56,60.56,0,0,0,31.33,0Z"/><path id="_路徑_188" data-name="&lt;路徑&gt;" class="cls-14" d="M1669.88,1530.69v-.41a61.77,61.77,0,0,1-31.33,0v.41a61.76,61.76,0,0,0,31.33,0Z"/><path id="_路徑_189" data-name="&lt;路徑&gt;" class="cls-14" d="M1669.88,1531.74v-.41a62.82,62.82,0,0,1-31.33,0v.41a63,63,0,0,0,31.33,0Z"/><path id="_路徑_190" data-name="&lt;路徑&gt;" class="cls-14" d="M1669.88,1532.79v-.41a63.89,63.89,0,0,1-31.33,0v.41a64.26,64.26,0,0,0,31.33,0Z"/><path id="_路徑_191" data-name="&lt;路徑&gt;" class="cls-14" d="M1669.88,1533.83v-.4a64.92,64.92,0,0,1-31.33,0v.4a65.08,65.08,0,0,0,31.33,0Z"/><path id="_路徑_192" data-name="&lt;路徑&gt;" class="cls-14" d="M1669.88,1534.86v-.4a66,66,0,0,1-31.33,0v.4a65.91,65.91,0,0,0,31.33,0Z"/><path id="_路徑_193" data-name="&lt;路徑&gt;" class="cls-14" d="M1669.88,1535.9v-.4a67,67,0,0,1-31.33,0v.4a66.71,66.71,0,0,0,31.33,0Z"/><path id="_路徑_194" data-name="&lt;路徑&gt;" class="cls-14" d="M1669.88,1536.93v-.4a68,68,0,0,1-31.33,0v.4a67.55,67.55,0,0,0,31.33,0Z"/><path id="_路徑_195" data-name="&lt;路徑&gt;" class="cls-14" d="M1669.88,1538v-.4a69.06,69.06,0,0,1-31.33,0v.4a68.44,68.44,0,0,0,31.33,0Z"/><path id="_路徑_196" data-name="&lt;路徑&gt;" class="cls-14" d="M1669.88,1539v-.4a70.1,70.1,0,0,1-31.33,0v.4a69.34,69.34,0,0,0,31.33,0Z"/><path id="_路徑_197" data-name="&lt;路徑&gt;" class="cls-14" d="M1669.88,1540v-.4a71.14,71.14,0,0,1-31.33,0v.4a70.26,70.26,0,0,0,31.33,0Z"/><path id="_路徑_198" data-name="&lt;路徑&gt;" class="cls-14" d="M1669.88,1541.07v-.4a72.18,72.18,0,0,1-31.33,0v.4a71.2,71.2,0,0,0,31.33,0Z"/><path id="_路徑_199" data-name="&lt;路徑&gt;" class="cls-14" d="M1669.88,1542.1v-.4a73.24,73.24,0,0,1-31.33,0v.4a72.17,72.17,0,0,0,31.33,0Z"/><path id="_路徑_200" data-name="&lt;路徑&gt;" class="cls-14" d="M1669.88,1543.1v-.36a74.27,74.27,0,0,1-31.33,0v.36a73.58,73.58,0,0,0,31.33,0Z"/><path id="_路徑_201" data-name="&lt;路徑&gt;" class="cls-14" d="M1669.88,1544.13v-.36a75.32,75.32,0,0,1-31.33,0v.36a74.65,74.65,0,0,0,31.33,0Z"/><path id="_路徑_202" data-name="&lt;路徑&gt;" class="cls-14" d="M1669.88,1545.17v-.36a76.35,76.35,0,0,1-31.33,0v.36a75.73,75.73,0,0,0,31.33,0Z"/><path id="_路徑_203" data-name="&lt;路徑&gt;" class="cls-14" d="M1669.88,1546.2v-.36a77.41,77.41,0,0,1-31.33,0v.36a76.85,76.85,0,0,0,31.33,0Z"/><path id="_路徑_204" data-name="&lt;路徑&gt;" class="cls-14" d="M1669.88,1547.23v-.36a78.43,78.43,0,0,1-31.33,0v.36a78,78,0,0,0,31.33,0Z"/><path id="_路徑_205" data-name="&lt;路徑&gt;" class="cls-14" d="M1669.88,1548.27v-.36a79.47,79.47,0,0,1-31.33,0v.36a79.21,79.21,0,0,0,31.33,0Z"/><path id="_路徑_206" data-name="&lt;路徑&gt;" class="cls-14" d="M1669.88,1549.3v-.36a80.51,80.51,0,0,1-31.33,0v.36a80.4,80.4,0,0,0,31.33,0Z"/><path id="_路徑_207" data-name="&lt;路徑&gt;" class="cls-14" d="M1669.88,1550.33V1550a81.57,81.57,0,0,1-31.33,0v.36a81.66,81.66,0,0,0,31.33,0Z"/><path id="_路徑_208" data-name="&lt;路徑&gt;" class="cls-14" d="M1669.88,1551.37V1551a82.61,82.61,0,0,1-31.33,0v.36a83,83,0,0,0,31.33,0Z"/><path id="_路徑_209" data-name="&lt;路徑&gt;" class="cls-14" d="M1669.88,1552.4V1552a83.71,83.71,0,0,1-31.33,0v.36a84.35,84.35,0,0,0,31.33,0Z"/><path id="_路徑_210" data-name="&lt;路徑&gt;" class="cls-14" d="M1669.8,1553.44a.75.75,0,0,0,.08-.31v0a84.73,84.73,0,0,1-31.33,0v0h0a.74.74,0,0,0,.08.32,85.21,85.21,0,0,0,31.18,0Z"/><path id="_路徑_211" data-name="&lt;路徑&gt;" class="cls-14" d="M1667.7,1554.79a7.55,7.55,0,0,0,1.2-.53,85.74,85.74,0,0,1-29.36,0,7.64,7.64,0,0,0,1.2.53,83.3,83.3,0,0,0,27,0Z"/></g><g id="_群組_14" data-name="&lt;群組&gt;"><ellipse id="_路徑_212" data-name="&lt;路徑&gt;" class="cls-10" cx="1654.22" cy="1508.95" rx="22.95" ry="8.92"/><ellipse id="_路徑_213" data-name="&lt;路徑&gt;" class="cls-10" cx="1654.22" cy="1506.09" rx="22.95" ry="7.13"/><ellipse id="_路徑_214" data-name="&lt;路徑&gt;" class="cls-12" cx="1654.22" cy="1506.09" rx="13.77" ry="4.28"/></g></g></g><path id="_複合路徑_" data-name="&lt;複合路徑&gt;" class="cls-15" d="M1700.55,1545.45a25.17,25.17,0,0,1-7.49-1.17,22.59,22.59,0,0,1-10.86-7c-2.69-3.34-3.57-7-2.49-10.34,1.54-4.71,6.9-7.76,13.67-7.76a25.1,25.1,0,0,1,7.49,1.17c9.67,3,15.54,10.65,13.35,17.37C1712.68,1542.41,1707.32,1545.45,1700.55,1545.45Zm-7.17-22.63c-5.1,0-9.06,2-10.09,5.2-.7,2.13,0,4.6,1.86,7a18.82,18.82,0,0,0,9.06,5.8,21.28,21.28,0,0,0,6.35,1c5.1,0,9.07-2,10.09-5.2,1.5-4.59-3.5-10.44-10.91-12.76A21.34,21.34,0,0,0,1693.38,1522.82Z"/><path id="_路徑_215" data-name="&lt;路徑&gt;" class="cls-16" d="M1712.43,1536.09c-1.84,5.65-10.26,8.06-18.8,5.39s-14-9.41-12.13-15.06,10.26-8.06,18.8-5.39S1714.27,1530.45,1712.43,1536.09Z"/><path id="_複合路徑_2" data-name="&lt;複合路徑&gt;" class="cls-17" d="M1700.55,1544.41a25.15,25.15,0,0,1-7.49-1.17,22.59,22.59,0,0,1-10.86-7c-2.69-3.34-3.57-7-2.49-10.34,1.54-4.71,6.9-7.76,13.67-7.76a25,25,0,0,1,7.49,1.17c9.67,3,15.54,10.65,13.35,17.36C1712.68,1541.36,1707.32,1544.41,1700.55,1544.41Zm-7.17-22.63c-5.1,0-9.06,2-10.09,5.2-.7,2.13,0,4.6,1.86,7a18.81,18.81,0,0,0,9.06,5.8,21.24,21.24,0,0,0,6.35,1c5.1,0,9.07-2,10.09-5.2,1.5-4.6-3.5-10.44-10.91-12.75A21.31,21.31,0,0,0,1693.38,1521.78Z"/><path id="_路徑_216" data-name="&lt;路徑&gt;" class="cls-3" d="M1696.7,1527.88c-.28.86-1.56,1.23-2.86.82s-2.12-1.43-1.85-2.29,1.56-1.23,2.86-.82S1697,1527,1696.7,1527.88Z"/><path id="_路徑_217" data-name="&lt;路徑&gt;" class="cls-3" d="M1694.6,1532.91c-.28.86-1.56,1.23-2.87.82s-2.12-1.43-1.84-2.29,1.56-1.23,2.86-.82S1694.88,1532,1694.6,1532.91Z"/><path id="_路徑_218" data-name="&lt;路徑&gt;" class="cls-3" d="M1704.23,1530.15c-.28.86-1.56,1.23-2.87.82s-2.12-1.43-1.85-2.29,1.57-1.23,2.86-.82S1704.51,1529.29,1704.23,1530.15Z"/><path id="_路徑_219" data-name="&lt;路徑&gt;" class="cls-3" d="M1702.59,1535.41c-.28.86-1.56,1.23-2.86.82s-2.13-1.43-1.85-2.29,1.56-1.23,2.87-.82S1702.87,1534.55,1702.59,1535.41Z"/><path id="_路徑_220" data-name="&lt;路徑&gt;" class="cls-8" d="M1692.08,1533.09a1,1,0,0,1-.43-.1.91.91,0,0,1-.4-1.24c2.3-4.3.71-13.54-1.44-17.43-2.31-4.17-7.37-6.4-10.18-7.36a14.8,14.8,0,0,0-7.47-.87c-.38.07-.76.18-1.12.28a8.12,8.12,0,0,1-2.58.42.93.93,0,0,1-.89-1,.87.87,0,0,1,1-.88,6.27,6.27,0,0,0,2-.35c.43-.12.86-.24,1.3-.32a16.59,16.59,0,0,1,8.44.94c3.07,1,8.6,3.51,11.21,8.22,2.4,4.33,4.07,14.28,1.46,19.16A1,1,0,0,1,1692.08,1533.09Z"/><path id="_路徑_221" data-name="&lt;路徑&gt;" class="cls-2" d="M1424,1749.17c-15,16.1,155.83-2.72,166.22-58.2,3.47-18.55-11.74-52.11-34.5-52.35-32-.34-47.38,33.33-26.44,50.5,30,24.59,83.48-40.24,100-62.55,21.62-29.16-3-1-3-1s-41.55,46.58-65.11,61.06c-26.44,16.26-55.22-19.09-25.18-37,35.35-21.1,56,22.19,48.88,46.47C1558.33,1744.67,1458.25,1747.41,1424,1749.17Z"/><path id="_路徑_222" data-name="&lt;路徑&gt;" class="cls-2" d="M1019.51,833.31c10.89,8,24.83,27.48,67.29,37.2,14.55,3.33,35.76,8.89,54.55,20C1199,924.79,1276,1009.71,1268,1016.27c-8.67,0-76.67-116-183-141C1040.83,864.87,1017.3,838.44,1019.51,833.31Z"/><path id="_路徑_223" data-name="&lt;路徑&gt;" class="cls-2" d="M1393.22,339.43s-94-5.51-172.29,40.5-76.9,72.93-121.48,91.54-75,26.33-101.72,29.32-3.67,4-1,3.77c31-2.68,92.25-21.31,114.62-33.3,13.41-6.34,12.09-13.63,89.53-71.68,15-12.21,64.19-37.66,105.07-49.28,33.51-6.41,82.75-7.3,87.3-7.19S1393.22,339.43,1393.22,339.43Z"/><g id="_群組_15" data-name="&lt;群組&gt;"><g id="_群組_16" data-name="&lt;群組&gt;"><g id="_群組_17" data-name="&lt;群組&gt;"><rect id="_路徑_224" data-name="&lt;路徑&gt;" class="cls-18" x="1473.89" y="212.18" width="24.55" height="13.27"/><rect id="_路徑_225" data-name="&lt;路徑&gt;" class="cls-18" x="1473.89" y="328.66" width="24.55" height="13.27"/></g><g id="_剪裁群組_" data-name="&lt;剪裁群組&gt;"><rect id="_剪裁路徑_6" data-name="&lt;剪裁路徑&gt;" class="cls-1" x="1466.89" y="219.99" width="38.54" height="114.13"/><g class="cls-19"><g id="_群組_18" data-name="&lt;群組&gt;"><g id="_群組_19" data-name="&lt;群組&gt;"><line id="_路徑_226" data-name="&lt;路徑&gt;" class="cls-20" x1="1508.49" y1="221.76" x2="1464.43" y2="221.76"/><line id="_路徑_227" data-name="&lt;路徑&gt;" class="cls-20" x1="1508.49" y1="224.08" x2="1464.43" y2="224.08"/><line id="_路徑_228" data-name="&lt;路徑&gt;" class="cls-20" x1="1508.49" y1="226.4" x2="1464.43" y2="226.4"/><line id="_路徑_229" data-name="&lt;路徑&gt;" class="cls-20" x1="1508.49" y1="228.71" x2="1464.43" y2="228.71"/><line id="_路徑_230" data-name="&lt;路徑&gt;" class="cls-20" x1="1508.49" y1="231.03" x2="1464.43" y2="231.03"/><line id="_路徑_231" data-name="&lt;路徑&gt;" class="cls-20" x1="1508.49" y1="233.35" x2="1464.43" y2="233.35"/><line id="_路徑_232" data-name="&lt;路徑&gt;" class="cls-20" x1="1508.49" y1="235.67" x2="1464.43" y2="235.67"/><line id="_路徑_233" data-name="&lt;路徑&gt;" class="cls-20" x1="1508.49" y1="237.99" x2="1464.43" y2="237.99"/><line id="_路徑_234" data-name="&lt;路徑&gt;" class="cls-20" x1="1508.49" y1="240.31" x2="1464.43" y2="240.31"/><line id="_路徑_235" data-name="&lt;路徑&gt;" class="cls-20" x1="1508.49" y1="242.63" x2="1464.43" y2="242.63"/><line id="_路徑_236" data-name="&lt;路徑&gt;" class="cls-20" x1="1508.49" y1="244.94" x2="1464.43" y2="244.94"/><line id="_路徑_237" data-name="&lt;路徑&gt;" class="cls-20" x1="1508.49" y1="247.26" x2="1464.43" y2="247.26"/><line id="_路徑_238" data-name="&lt;路徑&gt;" class="cls-20" x1="1508.49" y1="249.58" x2="1464.43" y2="249.58"/><line id="_路徑_239" data-name="&lt;路徑&gt;" class="cls-20" x1="1508.49" y1="251.9" x2="1464.43" y2="251.9"/><line id="_路徑_240" data-name="&lt;路徑&gt;" class="cls-20" x1="1508.49" y1="254.22" x2="1464.43" y2="254.22"/><line id="_路徑_241" data-name="&lt;路徑&gt;" class="cls-20" x1="1508.49" y1="256.54" x2="1464.43" y2="256.54"/><line id="_路徑_242" data-name="&lt;路徑&gt;" class="cls-20" x1="1508.49" y1="258.86" x2="1464.43" y2="258.86"/><line id="_路徑_243" data-name="&lt;路徑&gt;" class="cls-20" x1="1508.49" y1="261.17" x2="1464.43" y2="261.17"/><line id="_路徑_244" data-name="&lt;路徑&gt;" class="cls-20" x1="1508.49" y1="263.49" x2="1464.43" y2="263.49"/><line id="_路徑_245" data-name="&lt;路徑&gt;" class="cls-20" x1="1508.49" y1="265.81" x2="1464.43" y2="265.81"/><line id="_路徑_246" data-name="&lt;路徑&gt;" class="cls-20" x1="1508.49" y1="268.13" x2="1464.43" y2="268.13"/><line id="_路徑_247" data-name="&lt;路徑&gt;" class="cls-20" x1="1508.49" y1="270.45" x2="1464.43" y2="270.45"/><line id="_路徑_248" data-name="&lt;路徑&gt;" class="cls-20" x1="1508.49" y1="272.77" x2="1464.43" y2="272.77"/><line id="_路徑_249" data-name="&lt;路徑&gt;" class="cls-20" x1="1508.49" y1="275.08" x2="1464.43" y2="275.08"/><line id="_路徑_250" data-name="&lt;路徑&gt;" class="cls-20" x1="1508.49" y1="277.4" x2="1464.43" y2="277.4"/><line id="_路徑_251" data-name="&lt;路徑&gt;" class="cls-20" x1="1508.49" y1="279.72" x2="1464.43" y2="279.72"/><line id="_路徑_252" data-name="&lt;路徑&gt;" class="cls-20" x1="1508.49" y1="282.04" x2="1464.43" y2="282.04"/><line id="_路徑_253" data-name="&lt;路徑&gt;" class="cls-20" x1="1508.49" y1="284.36" x2="1464.43" y2="284.36"/><line id="_路徑_254" data-name="&lt;路徑&gt;" class="cls-20" x1="1508.49" y1="286.68" x2="1464.43" y2="286.68"/><line id="_路徑_255" data-name="&lt;路徑&gt;" class="cls-20" x1="1508.49" y1="289" x2="1464.43" y2="289"/><line id="_路徑_256" data-name="&lt;路徑&gt;" class="cls-20" x1="1508.49" y1="291.31" x2="1464.43" y2="291.31"/><line id="_路徑_257" data-name="&lt;路徑&gt;" class="cls-20" x1="1508.49" y1="293.63" x2="1464.43" y2="293.63"/><line id="_路徑_258" data-name="&lt;路徑&gt;" class="cls-20" x1="1508.49" y1="295.95" x2="1464.43" y2="295.95"/><line id="_路徑_259" data-name="&lt;路徑&gt;" class="cls-20" x1="1508.49" y1="298.27" x2="1464.43" y2="298.27"/><line id="_路徑_260" data-name="&lt;路徑&gt;" class="cls-20" x1="1508.49" y1="300.59" x2="1464.43" y2="300.59"/><line id="_路徑_261" data-name="&lt;路徑&gt;" class="cls-20" x1="1508.49" y1="302.91" x2="1464.43" y2="302.91"/><line id="_路徑_262" data-name="&lt;路徑&gt;" class="cls-20" x1="1508.49" y1="305.23" x2="1464.43" y2="305.23"/><line id="_路徑_263" data-name="&lt;路徑&gt;" class="cls-20" x1="1508.49" y1="307.54" x2="1464.43" y2="307.54"/><line id="_路徑_264" data-name="&lt;路徑&gt;" class="cls-20" x1="1508.49" y1="309.86" x2="1464.43" y2="309.86"/><line id="_路徑_265" data-name="&lt;路徑&gt;" class="cls-20" x1="1508.49" y1="312.18" x2="1464.43" y2="312.18"/><line id="_路徑_266" data-name="&lt;路徑&gt;" class="cls-20" x1="1508.49" y1="314.5" x2="1464.43" y2="314.5"/><line id="_路徑_267" data-name="&lt;路徑&gt;" class="cls-20" x1="1508.49" y1="316.82" x2="1464.43" y2="316.82"/><line id="_路徑_268" data-name="&lt;路徑&gt;" class="cls-20" x1="1508.49" y1="319.14" x2="1464.43" y2="319.14"/><line id="_路徑_269" data-name="&lt;路徑&gt;" class="cls-20" x1="1508.49" y1="321.45" x2="1464.43" y2="321.45"/><line id="_路徑_270" data-name="&lt;路徑&gt;" class="cls-20" x1="1508.49" y1="323.77" x2="1464.43" y2="323.77"/><line id="_路徑_271" data-name="&lt;路徑&gt;" class="cls-20" x1="1508.49" y1="326.09" x2="1464.43" y2="326.09"/><line id="_路徑_272" data-name="&lt;路徑&gt;" class="cls-20" x1="1508.49" y1="328.41" x2="1464.43" y2="328.41"/><line id="_路徑_273" data-name="&lt;路徑&gt;" class="cls-20" x1="1508.49" y1="330.73" x2="1464.43" y2="330.73"/><line id="_路徑_274" data-name="&lt;路徑&gt;" class="cls-20" x1="1508.49" y1="333.05" x2="1464.43" y2="333.05"/></g></g></g></g></g><g id="_群組_20" data-name="&lt;群組&gt;"><path id="_路徑_275" data-name="&lt;路徑&gt;" class="cls-21" d="M1476.15,261.45a1,1,0,0,0-1-1.53H1429a1,1,0,0,0-1,1.53l2.75,6.09a2.84,2.84,0,0,0,2.37,1.53H1471a2.84,2.84,0,0,0,2.37-1.53Z"/><path id="_路徑_276" data-name="&lt;路徑&gt;" class="cls-21" d="M1476.15,340.35a1,1,0,0,1-1,1.53H1429a1,1,0,0,1-1-1.53l2.75-6.09a2.83,2.83,0,0,1,2.37-1.53H1471a2.84,2.84,0,0,1,2.37,1.53Z"/><g id="_剪裁群組_2" data-name="&lt;剪裁群組&gt;"><rect id="_剪裁路徑_7" data-name="&lt;剪裁路徑&gt;" class="cls-2" x="1431.45" y="269.07" width="41.27" height="63.66" rx="3.36" ry="3.36"/><g class="cls-22"><rect id="_路徑_277" data-name="&lt;路徑&gt;" class="cls-23" x="1431.45" y="269.07" width="41.27" height="63.66"/><g id="_群組_21" data-name="&lt;群組&gt;"><line id="_路徑_278" data-name="&lt;路徑&gt;" class="cls-24" x1="1485.96" y1="275.02" x2="1418.78" y2="254.44"/><line id="_路徑_279" data-name="&lt;路徑&gt;" class="cls-24" x1="1485.96" y1="278.2" x2="1418.78" y2="257.62"/><line id="_路徑_280" data-name="&lt;路徑&gt;" class="cls-24" x1="1485.96" y1="281.38" x2="1418.78" y2="260.8"/><line id="_路徑_281" data-name="&lt;路徑&gt;" class="cls-24" x1="1485.96" y1="284.57" x2="1418.78" y2="263.98"/><line id="_路徑_282" data-name="&lt;路徑&gt;" class="cls-24" x1="1485.96" y1="287.74" x2="1418.78" y2="267.16"/><line id="_路徑_283" data-name="&lt;路徑&gt;" class="cls-24" x1="1485.96" y1="290.93" x2="1418.78" y2="270.34"/><line id="_路徑_284" data-name="&lt;路徑&gt;" class="cls-24" x1="1485.96" y1="294.11" x2="1418.78" y2="273.52"/><line id="_路徑_285" data-name="&lt;路徑&gt;" class="cls-24" x1="1485.96" y1="297.29" x2="1418.78" y2="276.7"/><line id="_路徑_286" data-name="&lt;路徑&gt;" class="cls-24" x1="1485.96" y1="300.47" x2="1418.78" y2="279.88"/><line id="_路徑_287" data-name="&lt;路徑&gt;" class="cls-24" x1="1485.96" y1="303.65" x2="1418.78" y2="283.06"/><line id="_路徑_288" data-name="&lt;路徑&gt;" class="cls-24" x1="1485.96" y1="306.83" x2="1418.78" y2="286.24"/><line id="_路徑_289" data-name="&lt;路徑&gt;" class="cls-24" x1="1485.96" y1="310.01" x2="1418.78" y2="289.42"/><line id="_路徑_290" data-name="&lt;路徑&gt;" class="cls-24" x1="1485.96" y1="313.19" x2="1418.78" y2="292.6"/><line id="_路徑_291" data-name="&lt;路徑&gt;" class="cls-24" x1="1485.96" y1="316.37" x2="1418.78" y2="295.79"/><line id="_路徑_292" data-name="&lt;路徑&gt;" class="cls-24" x1="1485.96" y1="319.55" x2="1418.78" y2="298.97"/><line id="_路徑_293" data-name="&lt;路徑&gt;" class="cls-24" x1="1485.96" y1="322.73" x2="1418.78" y2="302.15"/><line id="_路徑_294" data-name="&lt;路徑&gt;" class="cls-24" x1="1485.96" y1="325.91" x2="1418.78" y2="305.33"/><line id="_路徑_295" data-name="&lt;路徑&gt;" class="cls-24" x1="1485.96" y1="329.09" x2="1418.78" y2="308.51"/><line id="_路徑_296" data-name="&lt;路徑&gt;" class="cls-24" x1="1485.96" y1="332.28" x2="1418.78" y2="311.69"/><line id="_路徑_297" data-name="&lt;路徑&gt;" class="cls-24" x1="1485.96" y1="335.46" x2="1418.78" y2="314.87"/><line id="_路徑_298" data-name="&lt;路徑&gt;" class="cls-24" x1="1485.96" y1="338.64" x2="1418.78" y2="318.05"/><line id="_路徑_299" data-name="&lt;路徑&gt;" class="cls-24" x1="1485.96" y1="341.82" x2="1418.78" y2="321.23"/><line id="_路徑_300" data-name="&lt;路徑&gt;" class="cls-24" x1="1485.96" y1="345" x2="1418.78" y2="324.41"/><line id="_路徑_301" data-name="&lt;路徑&gt;" class="cls-24" x1="1485.96" y1="348.18" x2="1418.78" y2="327.59"/></g></g></g></g><g id="_群組_22" data-name="&lt;群組&gt;"><path id="_路徑_302" data-name="&lt;路徑&gt;" class="cls-21" d="M1438.95,266.08a1,1,0,0,0-1-1.53h-46.17a1,1,0,0,0-1,1.53l2.75,6.09a2.84,2.84,0,0,0,2.37,1.53h37.91a2.84,2.84,0,0,0,2.37-1.53Z"/><path id="_路徑_303" data-name="&lt;路徑&gt;" class="cls-21" d="M1438.95,345a1,1,0,0,1-1,1.53h-46.17a1,1,0,0,1-1-1.53l2.75-6.09a2.83,2.83,0,0,1,2.37-1.53h37.91a2.84,2.84,0,0,1,2.37,1.53Z"/><g id="_剪裁群組_3" data-name="&lt;剪裁群組&gt;"><rect id="_剪裁路徑_8" data-name="&lt;剪裁路徑&gt;" class="cls-2" x="1394.24" y="273.7" width="41.27" height="63.66" rx="3.36" ry="3.36"/><g class="cls-25"><rect id="_路徑_304" data-name="&lt;路徑&gt;" class="cls-23" x="1394.24" y="273.7" width="41.27" height="63.66"/><g id="_群組_23" data-name="&lt;群組&gt;"><line id="_路徑_305" data-name="&lt;路徑&gt;" class="cls-24" x1="1448.75" y1="279.65" x2="1381.57" y2="259.07"/><line id="_路徑_306" data-name="&lt;路徑&gt;" class="cls-24" x1="1448.75" y1="282.83" x2="1381.57" y2="262.25"/><line id="_路徑_307" data-name="&lt;路徑&gt;" class="cls-24" x1="1448.75" y1="286.02" x2="1381.57" y2="265.43"/><line id="_路徑_308" data-name="&lt;路徑&gt;" class="cls-24" x1="1448.75" y1="289.2" x2="1381.57" y2="268.61"/><line id="_路徑_309" data-name="&lt;路徑&gt;" class="cls-24" x1="1448.75" y1="292.38" x2="1381.57" y2="271.79"/><line id="_路徑_310" data-name="&lt;路徑&gt;" class="cls-24" x1="1448.75" y1="295.56" x2="1381.57" y2="274.97"/><line id="_路徑_311" data-name="&lt;路徑&gt;" class="cls-24" x1="1448.75" y1="298.74" x2="1381.57" y2="278.15"/><line id="_路徑_312" data-name="&lt;路徑&gt;" class="cls-24" x1="1448.75" y1="301.92" x2="1381.57" y2="281.33"/><line id="_路徑_313" data-name="&lt;路徑&gt;" class="cls-24" x1="1448.75" y1="305.1" x2="1381.57" y2="284.51"/><line id="_路徑_314" data-name="&lt;路徑&gt;" class="cls-24" x1="1448.75" y1="308.28" x2="1381.57" y2="287.7"/><line id="_路徑_315" data-name="&lt;路徑&gt;" class="cls-24" x1="1448.75" y1="311.46" x2="1381.57" y2="290.87"/><line id="_路徑_316" data-name="&lt;路徑&gt;" class="cls-24" x1="1448.75" y1="314.64" x2="1381.57" y2="294.06"/><line id="_路徑_317" data-name="&lt;路徑&gt;" class="cls-24" x1="1448.75" y1="317.82" x2="1381.57" y2="297.24"/><line id="_路徑_318" data-name="&lt;路徑&gt;" class="cls-24" x1="1448.75" y1="321" x2="1381.57" y2="300.42"/><line id="_路徑_319" data-name="&lt;路徑&gt;" class="cls-24" x1="1448.75" y1="324.18" x2="1381.57" y2="303.6"/><line id="_路徑_320" data-name="&lt;路徑&gt;" class="cls-24" x1="1448.75" y1="327.37" x2="1381.57" y2="306.78"/><line id="_路徑_321" data-name="&lt;路徑&gt;" class="cls-24" x1="1448.75" y1="330.55" x2="1381.57" y2="309.96"/><line id="_路徑_322" data-name="&lt;路徑&gt;" class="cls-24" x1="1448.75" y1="333.72" x2="1381.57" y2="313.14"/><line id="_路徑_323" data-name="&lt;路徑&gt;" class="cls-24" x1="1448.75" y1="336.91" x2="1381.57" y2="316.32"/><line id="_路徑_324" data-name="&lt;路徑&gt;" class="cls-24" x1="1448.75" y1="340.09" x2="1381.57" y2="319.5"/><line id="_路徑_325" data-name="&lt;路徑&gt;" class="cls-24" x1="1448.75" y1="343.27" x2="1381.57" y2="322.68"/><line id="_路徑_326" data-name="&lt;路徑&gt;" class="cls-24" x1="1448.75" y1="346.45" x2="1381.57" y2="325.86"/><line id="_路徑_327" data-name="&lt;路徑&gt;" class="cls-24" x1="1448.75" y1="349.63" x2="1381.57" y2="329.04"/><line id="_路徑_328" data-name="&lt;路徑&gt;" class="cls-24" x1="1448.75" y1="352.81" x2="1381.57" y2="332.22"/></g></g></g></g><g id="_群組_24" data-name="&lt;群組&gt;"><path id="_路徑_329" data-name="&lt;路徑&gt;" class="cls-21" d="M1495,266.08a1,1,0,0,0-1-1.53h-46.17a1,1,0,0,0-1,1.53l2.75,6.09a2.84,2.84,0,0,0,2.37,1.53h37.91a2.84,2.84,0,0,0,2.37-1.53Z"/><path id="_路徑_330" data-name="&lt;路徑&gt;" class="cls-21" d="M1495,345a1,1,0,0,1-1,1.53h-46.17a1,1,0,0,1-1-1.53l2.75-6.09a2.83,2.83,0,0,1,2.37-1.53h37.91a2.84,2.84,0,0,1,2.37,1.53Z"/><g id="_剪裁群組_4" data-name="&lt;剪裁群組&gt;"><rect id="_剪裁路徑_9" data-name="&lt;剪裁路徑&gt;" class="cls-2" x="1450.26" y="273.7" width="41.27" height="63.66" rx="3.36" ry="3.36"/><g class="cls-26"><rect id="_路徑_331" data-name="&lt;路徑&gt;" class="cls-23" x="1450.26" y="273.7" width="41.27" height="63.66"/><g id="_群組_25" data-name="&lt;群組&gt;"><line id="_路徑_332" data-name="&lt;路徑&gt;" class="cls-24" x1="1504.77" y1="279.65" x2="1437.6" y2="259.07"/><line id="_路徑_333" data-name="&lt;路徑&gt;" class="cls-24" x1="1504.77" y1="282.83" x2="1437.6" y2="262.25"/><line id="_路徑_334" data-name="&lt;路徑&gt;" class="cls-24" x1="1504.77" y1="286.02" x2="1437.6" y2="265.43"/><line id="_路徑_335" data-name="&lt;路徑&gt;" class="cls-24" x1="1504.77" y1="289.2" x2="1437.6" y2="268.61"/><line id="_路徑_336" data-name="&lt;路徑&gt;" class="cls-24" x1="1504.77" y1="292.38" x2="1437.6" y2="271.79"/><line id="_路徑_337" data-name="&lt;路徑&gt;" class="cls-24" x1="1504.77" y1="295.56" x2="1437.6" y2="274.97"/><line id="_路徑_338" data-name="&lt;路徑&gt;" class="cls-24" x1="1504.77" y1="298.74" x2="1437.6" y2="278.15"/><line id="_路徑_339" data-name="&lt;路徑&gt;" class="cls-24" x1="1504.77" y1="301.92" x2="1437.6" y2="281.33"/><line id="_路徑_340" data-name="&lt;路徑&gt;" class="cls-24" x1="1504.77" y1="305.1" x2="1437.6" y2="284.51"/><line id="_路徑_341" data-name="&lt;路徑&gt;" class="cls-24" x1="1504.77" y1="308.28" x2="1437.6" y2="287.7"/><line id="_路徑_342" data-name="&lt;路徑&gt;" class="cls-24" x1="1504.77" y1="311.46" x2="1437.6" y2="290.87"/><line id="_路徑_343" data-name="&lt;路徑&gt;" class="cls-24" x1="1504.77" y1="314.64" x2="1437.6" y2="294.06"/><line id="_路徑_344" data-name="&lt;路徑&gt;" class="cls-24" x1="1504.77" y1="317.82" x2="1437.6" y2="297.24"/><line id="_路徑_345" data-name="&lt;路徑&gt;" class="cls-24" x1="1504.77" y1="321" x2="1437.6" y2="300.42"/><line id="_路徑_346" data-name="&lt;路徑&gt;" class="cls-24" x1="1504.77" y1="324.18" x2="1437.6" y2="303.6"/><line id="_路徑_347" data-name="&lt;路徑&gt;" class="cls-24" x1="1504.77" y1="327.37" x2="1437.6" y2="306.78"/><line id="_路徑_348" data-name="&lt;路徑&gt;" class="cls-24" x1="1504.77" y1="330.55" x2="1437.6" y2="309.96"/><line id="_路徑_349" data-name="&lt;路徑&gt;" class="cls-24" x1="1504.77" y1="333.72" x2="1437.6" y2="313.14"/><line id="_路徑_350" data-name="&lt;路徑&gt;" class="cls-24" x1="1504.77" y1="336.91" x2="1437.6" y2="316.32"/><line id="_路徑_351" data-name="&lt;路徑&gt;" class="cls-24" x1="1504.77" y1="340.09" x2="1437.6" y2="319.5"/><line id="_路徑_352" data-name="&lt;路徑&gt;" class="cls-24" x1="1504.77" y1="343.27" x2="1437.6" y2="322.68"/><line id="_路徑_353" data-name="&lt;路徑&gt;" class="cls-24" x1="1504.77" y1="346.45" x2="1437.6" y2="325.86"/><line id="_路徑_354" data-name="&lt;路徑&gt;" class="cls-24" x1="1504.77" y1="349.63" x2="1437.6" y2="329.04"/><line id="_路徑_355" data-name="&lt;路徑&gt;" class="cls-24" x1="1504.77" y1="352.81" x2="1437.6" y2="332.22"/></g></g></g></g><g id="_群組_26" data-name="&lt;群組&gt;"><g id="_群組_27" data-name="&lt;群組&gt;"><rect id="_路徑_356" data-name="&lt;路徑&gt;" class="cls-18" x="1502.1" y="216.11" width="24.55" height="13.27"/><rect id="_路徑_357" data-name="&lt;路徑&gt;" class="cls-18" x="1502.1" y="332.59" width="24.55" height="13.27"/></g><g id="_剪裁群組_5" data-name="&lt;剪裁群組&gt;"><rect id="_剪裁路徑_10" data-name="&lt;剪裁路徑&gt;" class="cls-1" x="1495.11" y="223.92" width="38.55" height="114.13"/><g class="cls-27"><g id="_群組_28" data-name="&lt;群組&gt;"><g id="_群組_29" data-name="&lt;群組&gt;"><line id="_路徑_358" data-name="&lt;路徑&gt;" class="cls-20" x1="1536.7" y1="225.69" x2="1492.65" y2="225.69"/><line id="_路徑_359" data-name="&lt;路徑&gt;" class="cls-20" x1="1536.7" y1="228.01" x2="1492.65" y2="228.01"/><line id="_路徑_360" data-name="&lt;路徑&gt;" class="cls-20" x1="1536.7" y1="230.32" x2="1492.65" y2="230.32"/><line id="_路徑_361" data-name="&lt;路徑&gt;" class="cls-20" x1="1536.7" y1="232.64" x2="1492.65" y2="232.64"/><line id="_路徑_362" data-name="&lt;路徑&gt;" class="cls-20" x1="1536.7" y1="234.96" x2="1492.65" y2="234.96"/><line id="_路徑_363" data-name="&lt;路徑&gt;" class="cls-20" x1="1536.7" y1="237.28" x2="1492.65" y2="237.28"/><line id="_路徑_364" data-name="&lt;路徑&gt;" class="cls-20" x1="1536.7" y1="239.6" x2="1492.65" y2="239.6"/><line id="_路徑_365" data-name="&lt;路徑&gt;" class="cls-20" x1="1536.7" y1="241.92" x2="1492.65" y2="241.92"/><line id="_路徑_366" data-name="&lt;路徑&gt;" class="cls-20" x1="1536.7" y1="244.24" x2="1492.65" y2="244.24"/><line id="_路徑_367" data-name="&lt;路徑&gt;" class="cls-20" x1="1536.7" y1="246.55" x2="1492.65" y2="246.55"/><line id="_路徑_368" data-name="&lt;路徑&gt;" class="cls-20" x1="1536.7" y1="248.87" x2="1492.65" y2="248.87"/><line id="_路徑_369" data-name="&lt;路徑&gt;" class="cls-20" x1="1536.7" y1="251.19" x2="1492.65" y2="251.19"/><line id="_路徑_370" data-name="&lt;路徑&gt;" class="cls-20" x1="1536.7" y1="253.51" x2="1492.65" y2="253.51"/><line id="_路徑_371" data-name="&lt;路徑&gt;" class="cls-20" x1="1536.7" y1="255.83" x2="1492.65" y2="255.83"/><line id="_路徑_372" data-name="&lt;路徑&gt;" class="cls-20" x1="1536.7" y1="258.15" x2="1492.65" y2="258.15"/><line id="_路徑_373" data-name="&lt;路徑&gt;" class="cls-20" x1="1536.7" y1="260.47" x2="1492.65" y2="260.47"/><line id="_路徑_374" data-name="&lt;路徑&gt;" class="cls-20" x1="1536.7" y1="262.78" x2="1492.65" y2="262.78"/><line id="_路徑_375" data-name="&lt;路徑&gt;" class="cls-20" x1="1536.7" y1="265.1" x2="1492.65" y2="265.1"/><line id="_路徑_376" data-name="&lt;路徑&gt;" class="cls-20" x1="1536.7" y1="267.42" x2="1492.65" y2="267.42"/><line id="_路徑_377" data-name="&lt;路徑&gt;" class="cls-20" x1="1536.7" y1="269.74" x2="1492.65" y2="269.74"/><line id="_路徑_378" data-name="&lt;路徑&gt;" class="cls-20" x1="1536.7" y1="272.06" x2="1492.65" y2="272.06"/><line id="_路徑_379" data-name="&lt;路徑&gt;" class="cls-20" x1="1536.7" y1="274.38" x2="1492.65" y2="274.38"/><line id="_路徑_380" data-name="&lt;路徑&gt;" class="cls-20" x1="1536.7" y1="276.7" x2="1492.65" y2="276.7"/><line id="_路徑_381" data-name="&lt;路徑&gt;" class="cls-20" x1="1536.7" y1="279.01" x2="1492.65" y2="279.01"/><line id="_路徑_382" data-name="&lt;路徑&gt;" class="cls-20" x1="1536.7" y1="281.33" x2="1492.65" y2="281.33"/><line id="_路徑_383" data-name="&lt;路徑&gt;" class="cls-20" x1="1536.7" y1="283.65" x2="1492.65" y2="283.65"/><line id="_路徑_384" data-name="&lt;路徑&gt;" class="cls-20" x1="1536.7" y1="285.97" x2="1492.65" y2="285.97"/><line id="_路徑_385" data-name="&lt;路徑&gt;" class="cls-20" x1="1536.7" y1="288.29" x2="1492.65" y2="288.29"/><line id="_路徑_386" data-name="&lt;路徑&gt;" class="cls-20" x1="1536.7" y1="290.61" x2="1492.65" y2="290.61"/><line id="_路徑_387" data-name="&lt;路徑&gt;" class="cls-20" x1="1536.7" y1="292.93" x2="1492.65" y2="292.93"/><line id="_路徑_388" data-name="&lt;路徑&gt;" class="cls-20" x1="1536.7" y1="295.24" x2="1492.65" y2="295.24"/><line id="_路徑_389" data-name="&lt;路徑&gt;" class="cls-20" x1="1536.7" y1="297.56" x2="1492.65" y2="297.56"/><line id="_路徑_390" data-name="&lt;路徑&gt;" class="cls-20" x1="1536.7" y1="299.88" x2="1492.65" y2="299.88"/><line id="_路徑_391" data-name="&lt;路徑&gt;" class="cls-20" x1="1536.7" y1="302.2" x2="1492.65" y2="302.2"/><line id="_路徑_392" data-name="&lt;路徑&gt;" class="cls-20" x1="1536.7" y1="304.52" x2="1492.65" y2="304.52"/><line id="_路徑_393" data-name="&lt;路徑&gt;" class="cls-20" x1="1536.7" y1="306.84" x2="1492.65" y2="306.84"/><line id="_路徑_394" data-name="&lt;路徑&gt;" class="cls-20" x1="1536.7" y1="309.16" x2="1492.65" y2="309.16"/><line id="_路徑_395" data-name="&lt;路徑&gt;" class="cls-20" x1="1536.7" y1="311.47" x2="1492.65" y2="311.47"/><line id="_路徑_396" data-name="&lt;路徑&gt;" class="cls-20" x1="1536.7" y1="313.79" x2="1492.65" y2="313.79"/><line id="_路徑_397" data-name="&lt;路徑&gt;" class="cls-20" x1="1536.7" y1="316.11" x2="1492.65" y2="316.11"/><line id="_路徑_398" data-name="&lt;路徑&gt;" class="cls-20" x1="1536.7" y1="318.43" x2="1492.65" y2="318.43"/><line id="_路徑_399" data-name="&lt;路徑&gt;" class="cls-20" x1="1536.7" y1="320.75" x2="1492.65" y2="320.75"/><line id="_路徑_400" data-name="&lt;路徑&gt;" class="cls-20" x1="1536.7" y1="323.07" x2="1492.65" y2="323.07"/><line id="_路徑_401" data-name="&lt;路徑&gt;" class="cls-20" x1="1536.7" y1="325.38" x2="1492.65" y2="325.38"/><line id="_路徑_402" data-name="&lt;路徑&gt;" class="cls-20" x1="1536.7" y1="327.7" x2="1492.65" y2="327.7"/><line id="_路徑_403" data-name="&lt;路徑&gt;" class="cls-20" x1="1536.7" y1="330.02" x2="1492.65" y2="330.02"/><line id="_路徑_404" data-name="&lt;路徑&gt;" class="cls-20" x1="1536.7" y1="332.34" x2="1492.65" y2="332.34"/><line id="_路徑_405" data-name="&lt;路徑&gt;" class="cls-20" x1="1536.7" y1="334.66" x2="1492.65" y2="334.66"/><line id="_路徑_406" data-name="&lt;路徑&gt;" class="cls-20" x1="1536.7" y1="336.98" x2="1492.65" y2="336.98"/></g></g></g></g></g></g><g id="_群組_30" data-name="&lt;群組&gt;"><g id="_群組_31" data-name="&lt;群組&gt;"><path id="_路徑_407" data-name="&lt;路徑&gt;" class="cls-28" d="M1605.23,256.61s-17.83-59.67-12.78-102.71l30.29,105.26-4.79,9.49Z"/></g><g id="_群組_32" data-name="&lt;群組&gt;"><path id="_路徑_408" data-name="&lt;路徑&gt;" class="cls-29" d="M1601.07,255.06s52.45-33.57,76.71-69.48l-91.64,60-2.56,10.31Z"/></g><path id="_複合路徑_3" data-name="&lt;複合路徑&gt;" class="cls-30" d="M1546.2,282.7c5.79,4.76,12.88,3.9,18.72.15,4.5-2.89,6.65-6.55,8.45-10.69,1-2.31,1.89-4.76,3-7.31a11.8,11.8,0,0,1,5.46-6.12c3.46-1.76,7.5-2.68,11.18-3.92-.94-.45-.48-11.85-.51-13.2-1.89,1.33-5.59,2.47-7.63,3.5-5.26,2.65-11.8,7.46-13.25,13.88.16-.72-6.19-3.16-6.86-3.38a17.53,17.53,0,0,0-19.81,6.12C1540.58,267.78,1539.7,277.36,1546.2,282.7Zm4.48-17.23c3.32-5,9.07-7.1,12.85-4.61s4.16,8.59.84,13.63-9.07,7.1-12.85,4.61S1547.36,270.51,1550.68,265.47Z"/><circle id="_路徑_409" data-name="&lt;路徑&gt;" class="cls-31" cx="1609.22" cy="239.99" r="1.63" transform="translate(824.67 1665.35) rotate(-69.65)"/><path id="_複合路徑_4" data-name="&lt;複合路徑&gt;" class="cls-31" d="M1605.61,256.3s4.24,14.07,6.95,16.77l.69.69a57.49,57.49,0,0,0,3.69,32.61,13.47,13.47,0,0,0,12.92,7.82c13.63-.85,14.39-19.95,9.88-29.44a19.09,19.09,0,0,0-9.08-8.56s-7.37-2.79-11.51,2.36c0,0,6.65-15,2.14-24.87a117.18,117.18,0,0,0-5.84,12.42c-.09.22-.16.46-.25.68Zm19.07,24.33c4.41-1,9.48,4.67,11.32,12.68s-.25,15.33-4.66,16.34S1621.86,305,1620,297,1620.28,281.65,1624.69,280.63Z"/></g></svg>